<?xml version="1.0" encoding="UTF-8"?>
<svg xmlns="http://www.w3.org/2000/svg" xmlns:xlink="http://www.w3.org/1999/xlink" width="1125pt" height="1485pt" viewBox="0 0 1125 1485" version="1.1">
<defs>
<clipPath id="clip1">
  <path d="M 915.601563 766.742188 L 1006.039063 766.742188 L 1006.039063 898.324219 L 915.601563 898.324219 Z M 915.601563 766.742188 "/>
</clipPath>
<filter id="alpha" filterUnits="objectBoundingBox" x="0%" y="0%" width="100%" height="100%">
  <feColorMatrix type="matrix" in="SourceGraphic" values="0 0 0 0 1 0 0 0 0 1 0 0 0 0 1 0 0 0 1 0"/>
</filter>
<mask id="mask0">
  <g filter="url(#alpha)">
<rect x="0" y="0" width="1125" height="1485" style="fill:rgb(0%,0%,0%);fill-opacity:0.5;stroke:none;"/>
  </g>
</mask>
<clipPath id="clip3">
  <path d="M 0.601563 0.742188 L 91.039063 0.742188 L 91.039063 132.324219 L 0.601563 132.324219 Z M 0.601563 0.742188 "/>
</clipPath>
<clipPath id="clip2">
  <rect width="92" height="133"/>
</clipPath>
<g id="surface7" clip-path="url(#clip2)">
<g clip-path="url(#clip3)" clip-rule="nonzero">
<path style=" stroke:none;fill-rule:nonzero;fill:rgb(74.499512%,86.299133%,100%);fill-opacity:1;" d="M 0.601563 132.324219 C 0.601563 132.324219 23.925781 47.679688 75.246094 3.09375 C 82.066406 -2.835938 92.449219 3.273438 90.878906 12.257813 C 90.859375 12.40625 90.828125 12.558594 90.800781 12.710938 C 87.878906 28.007813 29.308594 85.199219 0.601563 132.324219 "/>
</g>
</g>
<clipPath id="clip4">
  <path d="M 906.539063 784.394531 L 1061.859375 784.394531 L 1061.859375 922.179688 L 906.539063 922.179688 Z M 906.539063 784.394531 "/>
</clipPath>
<mask id="mask1">
  <g filter="url(#alpha)">
<rect x="0" y="0" width="1125" height="1485" style="fill:rgb(0%,0%,0%);fill-opacity:0.5;stroke:none;"/>
  </g>
</mask>
<clipPath id="clip6">
  <path d="M 0.539063 0.394531 L 155.859375 0.394531 L 155.859375 138.179688 L 0.539063 138.179688 Z M 0.539063 0.394531 "/>
</clipPath>
<clipPath id="clip5">
  <rect width="156" height="139"/>
</clipPath>
<g id="surface10" clip-path="url(#clip5)">
<g clip-path="url(#clip6)" clip-rule="nonzero">
<path style=" stroke:none;fill-rule:nonzero;fill:rgb(74.499512%,86.299133%,100%);fill-opacity:1;" d="M 0.539063 138.179688 C 0.539063 138.179688 60.332031 37.234375 141.570313 1.273438 C 146.519531 -0.917969 152.460938 1.105469 154.800781 6.058594 C 156.328125 9.285156 156.511719 13.980469 153.210938 20.742188 C 144.421875 38.769531 52.1875 89.527344 0.539063 138.179688 "/>
</g>
</g>
<clipPath id="clip7">
  <path d="M 95.429688 497.90625 L 185.871094 497.90625 L 185.871094 629.488281 L 95.429688 629.488281 Z M 95.429688 497.90625 "/>
</clipPath>
<mask id="mask2">
  <g filter="url(#alpha)">
<rect x="0" y="0" width="1125" height="1485" style="fill:rgb(0%,0%,0%);fill-opacity:0.5;stroke:none;"/>
  </g>
</mask>
<clipPath id="clip9">
  <path d="M 0.429688 0.90625 L 90.871094 0.90625 L 90.871094 132.488281 L 0.429688 132.488281 Z M 0.429688 0.90625 "/>
</clipPath>
<clipPath id="clip8">
  <rect width="91" height="133"/>
</clipPath>
<g id="surface13" clip-path="url(#clip8)">
<g clip-path="url(#clip9)" clip-rule="nonzero">
<path style=" stroke:none;fill-rule:nonzero;fill:rgb(74.499512%,86.299133%,100%);fill-opacity:1;" d="M 90.871094 132.488281 C 90.871094 132.488281 67.546875 47.84375 16.226563 3.253906 C 9.40625 -2.671875 -0.976563 3.4375 0.585938 12.421875 C 0.613281 12.570313 0.640625 12.722656 0.671875 12.875 C 3.589844 28.171875 62.160156 85.363281 90.871094 132.488281 "/>
</g>
</g>
<clipPath id="clip10">
  <path d="M 39.613281 515.558594 L 194.929688 515.558594 L 194.929688 653.34375 L 39.613281 653.34375 Z M 39.613281 515.558594 "/>
</clipPath>
<mask id="mask3">
  <g filter="url(#alpha)">
<rect x="0" y="0" width="1125" height="1485" style="fill:rgb(0%,0%,0%);fill-opacity:0.5;stroke:none;"/>
  </g>
</mask>
<clipPath id="clip12">
  <path d="M 0.613281 0.558594 L 155.929688 0.558594 L 155.929688 138.34375 L 0.613281 138.34375 Z M 0.613281 0.558594 "/>
</clipPath>
<clipPath id="clip11">
  <rect width="156" height="139"/>
</clipPath>
<g id="surface16" clip-path="url(#clip11)">
<g clip-path="url(#clip12)" clip-rule="nonzero">
<path style=" stroke:none;fill-rule:nonzero;fill:rgb(74.499512%,86.299133%,100%);fill-opacity:1;" d="M 155.929688 138.34375 C 155.929688 138.34375 96.136719 37.398438 14.902344 1.4375 C 9.949219 -0.753906 4.003906 1.269531 1.667969 6.222656 C 0.144531 9.449219 -0.0429688 14.144531 3.257813 20.90625 C 12.050781 38.933594 104.28125 89.691406 155.929688 138.34375 "/>
</g>
</g>
<clipPath id="clip13">
  <path d="M 668.570313 277.550781 L 726.378906 277.550781 L 726.378906 314.210938 L 668.570313 314.210938 Z M 668.570313 277.550781 "/>
</clipPath>
<mask id="mask4">
  <g filter="url(#alpha)">
<rect x="0" y="0" width="1125" height="1485" style="fill:rgb(0%,0%,0%);fill-opacity:0.5;stroke:none;"/>
  </g>
</mask>
<clipPath id="clip15">
  <path d="M 0.570313 0.550781 L 58.378906 0.550781 L 58.378906 37.210938 L 0.570313 37.210938 Z M 0.570313 0.550781 "/>
</clipPath>
<clipPath id="clip14">
  <rect width="59" height="38"/>
</clipPath>
<g id="surface15" clip-path="url(#clip14)">
<g clip-path="url(#clip15)" clip-rule="nonzero">
<path style=" stroke:none;fill-rule:nonzero;fill:rgb(93.699646%,43.899536%,0%);fill-opacity:1;" d="M 49.21875 28.089844 C 45.714844 29.351563 35.230469 32.820313 20.847656 37.210938 C 16.046875 16.089844 0.570313 7.28125 0.570313 7.28125 L 57.855469 0.550781 C 58.808594 8.011719 59.617188 24.328125 49.21875 28.089844 "/>
</g>
</g>
</defs>
<g id="surface1">
<path style=" stroke:none;fill-rule:nonzero;fill:rgb(90.99884%,94.499207%,97.599792%);fill-opacity:1;" d="M 80.171875 1484.105469 C 80.171875 1484.105469 -59.246094 1210.191406 29.621094 888.011719 C 118.488281 565.835938 237.636719 727.914063 231.996094 352.890625 C 226.355469 -22.140625 506.289063 -54.261719 595.351563 54.511719 C 684.414063 163.289063 683.835938 294.25 867.789063 250.980469 C 1051.738281 207.71875 1086.761719 568.945313 1038.839844 753.023438 C 970.855469 1014.203125 1227.210938 971.210938 1065.511719 1484.449219 "/>
<path style=" stroke:none;fill-rule:nonzero;fill:rgb(86.299133%,91.799927%,100%);fill-opacity:1;" d="M 1088.648438 1265.28125 C 1101.339844 1224.128906 1036.261719 1197.277344 1036.261719 1197.277344 C 1036.261719 1197.277344 958.207031 1232.996094 945.796875 1226.988281 C 933.378906 1220.980469 1006.671875 1183.191406 1006.671875 1183.191406 C 985.773438 1166.527344 911.582031 1157.417969 911.582031 1157.417969 C 911.582031 1157.417969 870.207031 1231.382813 859.628906 1222.453125 C 849.050781 1213.519531 899.550781 1158.863281 899.550781 1158.863281 C 873.871094 1151.433594 837.691406 1163.945313 837.691406 1163.945313 C 786.390625 1189.265625 806.117188 1280.296875 773.136719 1299 C 773.136719 1299 766.425781 1302.050781 757.347656 1308.746094 L 763.222656 1312.566406 C 764.710938 1311.273438 766.214844 1310.070313 767.730469 1308.960938 C 767.738281 1308.949219 767.746094 1308.945313 767.761719 1308.941406 C 767.78125 1308.925781 767.804688 1308.910156 767.828125 1308.894531 C 768.808594 1308.230469 770.214844 1307.296875 771.9375 1306.160156 C 771.941406 1306.160156 771.945313 1306.15625 771.945313 1306.15625 C 771.949219 1306.152344 771.953125 1306.15625 771.953125 1306.152344 C 775.996094 1303.742188 778.863281 1301.890625 780.828125 1300.480469 C 780.835938 1300.476563 780.839844 1300.472656 780.847656 1300.46875 C 793.269531 1292.738281 817.453125 1282.203125 817.296875 1283.441406 C 813.585938 1311.90625 861.578125 1348.242188 893.269531 1360.601563 C 924.957031 1372.960938 917.792969 1356.984375 910.898438 1334.132813 C 904.003906 1311.277344 870.234375 1294.175781 864.105469 1282.992188 C 857.980469 1271.804688 874.839844 1275.558594 892.601563 1289.160156 C 910.363281 1302.757813 907.769531 1327.832031 936.109375 1350.363281 C 964.449219 1372.894531 1023.691406 1330.09375 1023.691406 1330.09375 C 998.722656 1323.132813 968.707031 1287.160156 971.859375 1278.917969 C 975.011719 1270.675781 1029.871094 1307.351563 1039.871094 1310.761719 C 1049.871094 1314.171875 1075.96875 1306.433594 1088.648438 1265.28125 "/>
<path style=" stroke:none;fill-rule:nonzero;fill:rgb(86.299133%,91.799927%,100%);fill-opacity:1;" d="M 23.050781 1117.925781 C 29.105469 1062.941406 119.148438 1065.710938 119.148438 1065.710938 C 119.148438 1065.710938 192.585938 1148.757813 210.210938 1148.246094 C 227.835938 1147.734375 161.054688 1064.769531 161.054688 1064.769531 C 194.058594 1056.21875 285.769531 1084.617188 285.769531 1084.617188 C 285.769531 1084.617188 296.6875 1193.226563 313.648438 1188.316406 C 330.605469 1183.40625 299.15625 1092.648438 299.15625 1092.648438 C 333.078125 1097.464844 369.171875 1131.203125 369.171875 1131.203125 C 416.492188 1187.953125 347.007813 1284.402344 376.199219 1323.726563 L 376.203125 1323.726563 C 376.203125 1323.726563 382.523438 1330.84375 389.769531 1343.484375 L 380.929688 1344.871094 C 379.84375 1342.570313 378.695313 1340.363281 377.472656 1338.265625 C 377.46875 1338.246094 377.464844 1338.238281 377.449219 1338.226563 C 377.433594 1338.195313 377.414063 1338.167969 377.398438 1338.136719 C 376.582031 1336.84375 375.410156 1335 373.964844 1332.761719 C 373.960938 1332.761719 373.957031 1332.757813 373.953125 1332.753906 C 373.953125 1332.746094 373.949219 1332.75 373.949219 1332.742188 C 370.433594 1327.789063 368.007813 1324.101563 366.417969 1321.410156 C 366.410156 1321.402344 366.40625 1321.394531 366.40625 1321.386719 C 355.757813 1305.773438 332.734375 1280.664063 332.292969 1282.203125 C 322.15625 1317.566406 247.335938 1334.925781 203.851563 1332.734375 C 160.367188 1330.546875 176.910156 1315.570313 196.632813 1292.382813 C 216.355469 1269.191406 264.695313 1266.910156 277.578125 1257.011719 C 290.464844 1247.109375 268.761719 1242.632813 240.996094 1249.238281 C 213.226563 1255.84375 203.507813 1286.636719 158.78125 1298.148438 C 114.054688 1309.664063 66.3125 1228.21875 66.3125 1228.21875 C 99.152344 1233.199219 152.691406 1206.796875 153.1875 1195.460938 C 153.683594 1184.125 70.628906 1198.273438 57.15625 1197.007813 C 43.6875 1195.742188 16.996094 1172.910156 23.050781 1117.925781 "/>
<g clip-path="url(#clip1)" clip-rule="nonzero">
<use xlink:href="#surface7" transform="matrix(1,0,0,1,915,766)" mask="url(#mask0)"/>
</g>
<g clip-path="url(#clip4)" clip-rule="nonzero">
<use xlink:href="#surface10" transform="matrix(1,0,0,1,906,784)" mask="url(#mask1)"/>
</g>
<g clip-path="url(#clip7)" clip-rule="nonzero">
<use xlink:href="#surface13" transform="matrix(1,0,0,1,95,497)" mask="url(#mask2)"/>
</g>
<g clip-path="url(#clip10)" clip-rule="nonzero">
<use xlink:href="#surface16" transform="matrix(1,0,0,1,39,515)" mask="url(#mask3)"/>
</g>
<path style=" stroke:none;fill-rule:nonzero;fill:rgb(74.499512%,80.799866%,100%);fill-opacity:1;" d="M 906.199219 243.359375 L 905.804688 1407.578125 C 905.792969 1445.828125 876.609375 1476.820313 840.632813 1476.808594 L 267.957031 1476.605469 C 231.964844 1476.59375 202.804688 1445.582031 202.816406 1407.332031 L 203.210938 243.109375 C 203.222656 204.878906 232.40625 173.878906 268.398438 173.898438 L 841.070313 174.101563 C 877.050781 174.109375 906.214844 205.121094 906.199219 243.359375 "/>
<path style=" stroke:none;fill-rule:nonzero;fill:rgb(3.898621%,20.799255%,38.398743%);fill-opacity:1;" d="M 261.480469 174.351563 C 229.246094 174.339844 203.011719 201.601563 203.003906 235.121094 L 202.605469 1403.871094 C 202.59375 1437.390625 228.8125 1464.671875 261.046875 1464.679688 L 848.558594 1464.886719 C 880.789063 1464.898438 907.023438 1437.636719 907.035156 1404.117188 L 907.429688 235.371094 C 907.441406 201.851563 881.226563 174.558594 848.996094 174.550781 Z M 848.550781 1482.339844 L 261.039063 1482.132813 C 219.550781 1482.117188 185.8125 1447.007813 185.824219 1403.863281 L 186.222656 235.109375 C 186.234375 191.96875 220 156.878906 261.488281 156.898438 L 849.003906 157.101563 C 890.488281 157.121094 924.226563 192.230469 924.214844 235.371094 L 923.816406 1404.121094 C 923.800781 1447.265625 890.039063 1482.351563 848.550781 1482.339844 "/>
<path style=" stroke:none;fill-rule:nonzero;fill:rgb(100%,52.49939%,19.198608%);fill-opacity:1;" d="M 204 1339.871094 L 904 1339.871094 L 904 500 L 204 500 Z M 204 1339.871094 "/>
<path style=" stroke:none;fill-rule:nonzero;fill:rgb(100%,47.799683%,20.799255%);fill-opacity:1;" d="M 676.238281 1410.277344 L 676.238281 1464.871094 C 676.238281 1465.542969 676.226563 1466.210938 676.203125 1466.871094 L 434.035156 1466.871094 C 434.011719 1466.210938 434 1465.542969 434 1464.871094 L 434 1410.277344 C 434 1385.375 447.925781 1365 464.945313 1365 L 645.296875 1365 C 662.316406 1365 676.238281 1385.375 676.238281 1410.277344 "/>
<path style=" stroke:none;fill-rule:nonzero;fill:rgb(90.99884%,94.499207%,97.599792%);fill-opacity:1;" d="M 344.757813 248.410156 C 344.757813 248.410156 356.886719 220.03125 385.898438 223.179688 C 385.898438 223.179688 428.015625 175.878906 472.925781 216.871094 C 472.925781 216.871094 520.667969 206.71875 556.023438 225.671875 C 579.597656 238.300781 587.382813 251.558594 587.382813 251.558594 "/>
<path style=" stroke:none;fill-rule:nonzero;fill:rgb(90.99884%,94.499207%,97.599792%);fill-opacity:1;" d="M 765.046875 229.839844 C 765.210938 229.828125 765.378906 229.820313 765.542969 229.820313 C 767.554688 229.78125 769.484375 228.800781 770.964844 226.96875 C 777.628906 218.75 797.925781 198.300781 819.78125 221.789063 C 821.492188 223.628906 823.699219 224.390625 825.863281 223.96875 C 834.304688 222.300781 856.359375 219.609375 873.628906 232.089844 C 874.097656 232.429688 874.558594 232.769531 875.007813 233.109375 C 882.195313 238.550781 879.179688 253.390625 870.9375 253.25 L 765.28125 251.390625 C 754.925781 251.210938 754.695313 230.359375 765.046875 229.839844 "/>
<path style=" stroke:none;fill-rule:nonzero;fill:rgb(100%,87.799072%,77.2995%);fill-opacity:1;" d="M 843.636719 1318.96875 L 267.367188 1318.96875 C 249.492188 1318.96875 235 1304.476563 235 1286.601563 L 235 560.367188 C 235 542.492188 249.492188 528 267.367188 528 L 843.636719 528 C 861.511719 528 876 542.488281 876 560.363281 L 876 1286.601563 C 876 1304.476563 861.511719 1318.96875 843.636719 1318.96875 "/>
<path style=" stroke:none;fill-rule:nonzero;fill:rgb(17.298889%,20.799255%,32.499695%);fill-opacity:1;" d="M 1123.628906 1485 L 1.367188 1484.605469 C 0.613281 1484.605469 0 1483.6875 0 1482.5625 L 0 1481.519531 C 0 1480.394531 0.617188 1479.476563 1.367188 1479.480469 L 1123.628906 1479.871094 C 1124.390625 1479.875 1125 1480.792969 1125 1481.914063 L 1125 1482.960938 C 1125 1484.082031 1124.378906 1485 1123.628906 1485 "/>
<path style=" stroke:none;fill-rule:nonzero;fill:rgb(82.699585%,87.799072%,100%);fill-opacity:1;" d="M 210.292969 340.660156 C 210.292969 340.660156 240.253906 339 246.78125 357.828125 C 246.78125 357.828125 269.851563 320.179688 318.578125 323.28125 C 367.304688 326.378906 376.304688 349.339844 376.304688 349.339844 C 376.304688 349.339844 404.226563 341.660156 427.410156 351.898438 C 450.59375 362.140625 449.105469 380.921875 449.105469 380.921875 C 449.105469 380.921875 470.359375 357.019531 513.085938 365.558594 C 513.085938 365.558594 504.5625 331 555.945313 323.101563 C 607.328125 315.199219 629.144531 328.851563 629.144531 328.851563 C 629.144531 328.851563 687.335938 298.839844 738.851563 336.46875 C 738.851563 336.46875 776.597656 330.589844 795.050781 349.21875 C 795.050781 349.21875 832.863281 312.609375 904 319.039063 L 904 500 L 210 500 "/>
<path style=" stroke:none;fill-rule:nonzero;fill:rgb(90.99884%,94.499207%,97.599792%);fill-opacity:1;" d="M 210.199219 399.359375 C 210.199219 399.359375 245.695313 385.070313 277.382813 418.351563 C 277.382813 418.351563 285.105469 403.710938 305.21875 407.328125 C 325.332031 410.960938 330.871094 440.53125 330.871094 440.53125 C 330.871094 440.53125 401.242188 403.539063 436.085938 496 L 210 496 "/>
<path style=" stroke:none;fill-rule:nonzero;fill:rgb(90.99884%,94.499207%,97.599792%);fill-opacity:1;" d="M 592 500 C 592 500 594.578125 465.449219 647.941406 457.191406 C 647.941406 457.191406 620.308594 448.921875 634.238281 428.390625 C 648.167969 407.859375 682 406.351563 682 406.351563 C 682 406.351563 685.535156 369.199219 781.476563 375.621094 C 808.414063 377.421875 836.925781 388.320313 841.386719 407.351563 C 841.386719 407.351563 851.789063 395.78125 873.339844 396.558594 C 873.339844 396.558594 876.007813 375.441406 907 375.621094 L 907 500 "/>
<path style=" stroke:none;fill-rule:nonzero;fill:rgb(41.999817%,59.199524%,96.499634%);fill-opacity:1;" d="M 737.144531 162.789063 L 707.070313 272.25 L 706.121094 272.128906 L 603.355469 259.019531 C 603.355469 259.019531 650.953125 248.621094 655.898438 242.621094 C 660.558594 236.960938 709.980469 169.878906 724.433594 162.71875 C 725.320313 162.28125 726.078125 162.058594 726.683594 162.101563 "/>
<path style=" stroke:none;fill-rule:nonzero;fill:rgb(14.099121%,27.49939%,56.098938%);fill-opacity:1;" d="M 706.121094 272.128906 L 603.355469 259.011719 C 603.355469 259.011719 650.953125 248.621094 655.898438 242.621094 C 660.558594 236.960938 709.980469 169.878906 724.433594 162.710938 C 711.636719 182.238281 681.972656 229.160156 683.230469 242.800781 C 684.429688 255.789063 698.898438 267.199219 706.121094 272.128906 "/>
<path style=" stroke:none;fill-rule:nonzero;fill:rgb(94.499207%,50.19989%,8.999634%);fill-opacity:1;" d="M 717.222656 305.089844 C 713.714844 306.351563 703.230469 309.820313 688.847656 314.210938 C 647.492188 326.851563 573.929688 347.140625 541.464844 344.628906 C 512.347656 342.378906 358.339844 330.03125 251.808594 320.21875 C 277.585938 272.671875 309.726563 246.390625 339.136719 231.988281 C 463.253906 242.671875 625.566406 257.109375 646.21875 261.300781 C 680.191406 268.199219 725.257813 273.808594 725.257813 273.808594 C 725.257813 273.808594 725.566406 275.261719 725.855469 277.550781 C 726.8125 285.011719 727.617188 301.328125 717.222656 305.089844 "/>
<path style=" stroke:none;fill-rule:nonzero;fill:rgb(82.699585%,87.799072%,100%);fill-opacity:1;" d="M 726.382813 285.46875 C 726.375 285.738281 726.375 286.019531 726.367188 286.300781 C 726.28125 292.230469 725.128906 298.851563 721.136719 302.660156 C 721 302.800781 720.859375 302.921875 720.71875 303.050781 C 720.433594 303.289063 720.136719 303.53125 719.828125 303.738281 L 719.820313 303.738281 L 719.820313 303.75 C 719.671875 303.851563 719.507813 303.949219 719.34375 304.058594 C 719.1875 304.160156 719.023438 304.261719 718.851563 304.351563 L 718.84375 304.351563 C 718.679688 304.449219 718.507813 304.53125 718.328125 304.621094 C 718.148438 304.699219 717.96875 304.789063 717.78125 304.871094 C 717.605469 304.949219 717.410156 305.019531 717.222656 305.089844 C 717.164063 305.109375 717.109375 305.128906 717.050781 305.140625 L 717.050781 305.148438 C 716.992188 305.171875 716.933594 305.191406 716.871094 305.210938 C 716.8125 305.238281 716.746094 305.25 716.6875 305.28125 C 716.617188 305.300781 716.550781 305.320313 716.484375 305.351563 C 716.414063 305.371094 716.34375 305.390625 716.277344 305.421875 C 716.199219 305.449219 716.125 305.46875 716.058594 305.5 L 716.050781 305.5 C 715.976563 305.53125 715.902344 305.550781 715.824219 305.578125 C 715.746094 305.609375 715.671875 305.640625 715.585938 305.660156 L 715.578125 305.660156 C 715.496094 305.691406 715.421875 305.71875 715.335938 305.75 C 715.25 305.78125 715.164063 305.800781 715.078125 305.828125 C 714.902344 305.898438 714.722656 305.960938 714.535156 306.019531 L 714.527344 306.019531 C 714.4375 306.050781 714.339844 306.078125 714.25 306.121094 L 714.242188 306.121094 C 714.148438 306.160156 714.050781 306.191406 713.953125 306.21875 C 713.878906 306.238281 713.8125 306.261719 713.738281 306.289063 C 712.960938 306.558594 712.09375 306.851563 711.144531 307.160156 C 710.964844 307.210938 710.792969 307.269531 710.609375 307.328125 C 708.121094 308.160156 705.105469 309.140625 701.632813 310.230469 C 701.273438 310.339844 700.917969 310.460938 700.542969 310.578125 C 699.9375 310.769531 699.320313 310.96875 698.683594 311.171875 C 698.550781 311.210938 698.414063 311.25 698.273438 311.289063 C 698.089844 311.351563 697.886719 311.421875 697.691406 311.480469 C 697.496094 311.539063 697.304688 311.601563 697.101563 311.660156 C 696.902344 311.71875 696.707031 311.789063 696.503906 311.851563 C 696.3125 311.910156 696.101563 311.96875 695.898438 312.039063 C 695.699219 312.101563 695.496094 312.160156 695.296875 312.21875 C 695.085938 312.289063 694.878906 312.359375 694.675781 312.421875 C 694.464844 312.480469 694.257813 312.550781 694.054688 312.609375 C 694.046875 312.609375 694.046875 312.621094 694.046875 312.621094 C 693.839844 312.679688 693.628906 312.738281 693.421875 312.808594 C 693.273438 312.851563 693.121094 312.898438 692.964844 312.949219 C 692.90625 312.960938 692.847656 312.988281 692.785156 313.011719 C 692.570313 313.070313 692.359375 313.140625 692.144531 313.199219 C 691.070313 313.53125 689.972656 313.871094 688.84375 314.210938 C 688.203125 314.410156 687.546875 314.609375 686.878906 314.808594 C 686.3125 314.988281 685.738281 315.160156 685.164063 315.328125 C 684.730469 315.460938 684.296875 315.601563 683.855469 315.730469 C 682.148438 316.238281 680.394531 316.769531 678.601563 317.300781 C 678.234375 317.410156 677.875 317.511719 677.519531 317.621094 C 676.890625 317.808594 676.265625 317.988281 675.628906 318.179688 C 675.0625 318.351563 674.488281 318.519531 673.90625 318.691406 C 673.261719 318.878906 672.621094 319.058594 671.972656 319.25 C 650.476563 325.519531 624.417969 332.550781 600.261719 337.648438 C 599.414063 337.828125 598.566406 338.011719 597.722656 338.191406 C 597.304688 338.269531 596.886719 338.359375 596.46875 338.441406 C 595.621094 338.621094 594.785156 338.78125 593.949219 338.949219 C 591.449219 339.449219 588.972656 339.929688 586.53125 340.371094 C 585.714844 340.519531 584.910156 340.671875 584.105469 340.808594 C 583.699219 340.878906 583.296875 340.949219 582.902344 341.019531 C 582.101563 341.171875 581.304688 341.300781 580.511719 341.441406 C 579.722656 341.570313 578.929688 341.699219 578.144531 341.820313 C 577.367188 341.949219 576.59375 342.078125 575.816406 342.191406 C 575.046875 342.320313 574.269531 342.441406 573.515625 342.550781 C 572.746094 342.660156 571.992188 342.769531 571.246094 342.878906 C 570.492188 342.980469 569.746094 343.078125 569.007813 343.179688 C 568.640625 343.230469 568.269531 343.28125 567.902344 343.320313 C 566.4375 343.511719 564.988281 343.679688 563.578125 343.839844 C 563.222656 343.878906 562.871094 343.921875 562.519531 343.949219 C 561.816406 344.019531 561.128906 344.089844 560.4375 344.160156 C 559.0625 344.289063 557.71875 344.410156 556.402344 344.488281 C 555.417969 344.570313 554.449219 344.621094 553.5 344.671875 C 552.863281 344.710938 552.238281 344.730469 551.617188 344.761719 C 550.691406 344.800781 549.78125 344.820313 548.898438 344.828125 C 547.714844 344.851563 546.5625 344.839844 545.460938 344.820313 C 544.898438 344.808594 544.355469 344.789063 543.816406 344.769531 C 543.546875 344.761719 543.285156 344.75 543.015625 344.730469 C 542.488281 344.699219 541.972656 344.671875 541.464844 344.628906 C 541.285156 344.621094 541.097656 344.601563 540.898438 344.589844 C 540.851563 344.589844 540.808594 344.578125 540.761719 344.578125 C 540.644531 344.558594 540.515625 344.550781 540.390625 344.550781 C 539.910156 344.511719 539.410156 344.46875 538.875 344.429688 C 538.730469 344.421875 538.589844 344.410156 538.441406 344.398438 C 538.261719 344.378906 538.082031 344.371094 537.894531 344.351563 C 537.617188 344.328125 537.328125 344.308594 537.035156 344.289063 C 536.882813 344.269531 536.722656 344.261719 536.566406 344.25 C 536.410156 344.238281 536.246094 344.21875 536.089844 344.210938 C 535.761719 344.191406 535.429688 344.160156 535.09375 344.128906 C 534.761719 344.109375 534.417969 344.078125 534.066406 344.050781 C 533.886719 344.039063 533.707031 344.03125 533.527344 344.011719 C 533.089844 343.96875 532.640625 343.941406 532.175781 343.898438 C 531.960938 343.890625 531.742188 343.871094 531.527344 343.851563 C 531.070313 343.820313 530.601563 343.78125 530.125 343.738281 C 529.921875 343.71875 529.71875 343.71875 529.511719 343.691406 C 528.921875 343.640625 528.324219 343.601563 527.703125 343.550781 C 525.996094 343.421875 524.171875 343.269531 522.246094 343.121094 C 522.015625 343.101563 521.777344 343.078125 521.53125 343.058594 C 521.050781 343.019531 520.566406 342.988281 520.066406 342.949219 C 519.335938 342.878906 518.582031 342.828125 517.8125 342.769531 C 517.496094 342.730469 517.183594 342.710938 516.878906 342.691406 C 516.15625 342.628906 515.414063 342.570313 514.675781 342.511719 C 514.40625 342.488281 514.132813 342.46875 513.863281 342.449219 C 513.355469 342.410156 512.839844 342.371094 512.316406 342.328125 L 510.613281 342.191406 C 510.308594 342.160156 510.011719 342.140625 509.703125 342.121094 L 508.851563 342.039063 C 508.398438 342.011719 507.941406 341.96875 507.480469 341.929688 C 504.828125 341.71875 502.074219 341.5 499.207031 341.28125 C 498.789063 341.238281 498.378906 341.210938 497.953125 341.171875 C 497.316406 341.121094 496.675781 341.058594 496.027344 341.019531 C 494.53125 340.890625 493.003906 340.769531 491.457031 340.648438 C 491.335938 340.628906 491.21875 340.621094 491.097656 340.621094 C 489.753906 340.511719 488.394531 340.398438 487.023438 340.289063 C 486.953125 340.28125 486.886719 340.269531 486.828125 340.269531 C 478.621094 339.609375 469.78125 338.878906 460.441406 338.121094 C 459.972656 338.078125 459.503906 338.039063 459.023438 338.011719 C 457.136719 337.859375 455.222656 337.699219 453.296875 337.539063 C 452.089844 337.441406 450.871094 337.339844 449.652344 337.238281 C 449.585938 337.238281 449.519531 337.230469 449.453125 337.21875 C 448.0625 337.109375 446.660156 336.988281 445.25 336.878906 C 445.078125 336.871094 444.90625 336.839844 444.726563 336.839844 C 442.257813 336.628906 439.746094 336.421875 437.214844 336.21875 C 436.566406 336.160156 435.917969 336.109375 435.265625 336.050781 C 435.066406 336.039063 434.871094 336.019531 434.671875 336.011719 C 432.460938 335.820313 430.21875 335.640625 427.972656 335.449219 C 426.988281 335.371094 426.007813 335.289063 425.023438 335.210938 C 424.367188 335.148438 423.71875 335.101563 423.058594 335.050781 C 421.730469 334.929688 420.402344 334.820313 419.066406 334.710938 C 417.066406 334.550781 415.054688 334.378906 413.039063 334.210938 C 412.863281 334.199219 412.683594 334.179688 412.503906 334.171875 C 411.667969 334.089844 410.839844 334.03125 410.007813 333.960938 C 409.949219 333.949219 409.890625 333.949219 409.828125 333.941406 C 407.351563 333.738281 404.863281 333.53125 402.355469 333.320313 C 402.289063 333.320313 402.222656 333.308594 402.148438 333.300781 C 401.886719 333.28125 401.632813 333.261719 401.371094 333.238281 C 399.902344 333.121094 398.421875 332.988281 396.945313 332.871094 C 395.832031 332.769531 394.710938 332.691406 393.59375 332.589844 C 392.898438 332.53125 392.203125 332.480469 391.507813 332.410156 C 388.605469 332.179688 385.691406 331.929688 382.765625 331.679688 L 382.691406 331.679688 C 377.847656 331.261719 372.96875 330.851563 368.070313 330.441406 C 367.402344 330.378906 366.738281 330.328125 366.0625 330.261719 L 365.921875 330.261719 C 363.773438 330.078125 361.628906 329.890625 359.472656 329.710938 C 358.808594 329.648438 358.152344 329.601563 357.484375 329.539063 C 355.632813 329.378906 353.78125 329.21875 351.929688 329.058594 C 348.167969 328.730469 344.398438 328.410156 340.632813 328.089844 C 338.253906 327.890625 335.871094 327.679688 333.496094 327.480469 C 332.003906 327.351563 330.511719 327.210938 329.027344 327.089844 C 325.464844 326.78125 321.917969 326.46875 318.378906 326.171875 C 318.207031 326.148438 318.042969 326.140625 317.871094 326.121094 C 315.652344 325.929688 313.429688 325.738281 311.21875 325.539063 C 308.066406 325.269531 304.917969 324.988281 301.789063 324.710938 C 300.535156 324.601563 299.28125 324.488281 298.035156 324.378906 C 297.652344 324.351563 297.273438 324.308594 296.890625 324.28125 C 294.359375 324.058594 291.851563 323.828125 289.351563 323.609375 C 288.976563 323.578125 288.613281 323.550781 288.246094 323.519531 C 286.527344 323.359375 284.820313 323.210938 283.117188 323.058594 C 275.898438 322.410156 268.804688 321.78125 261.875 321.140625 C 261.039063 321.070313 260.210938 320.988281 259.375 320.921875 C 258.867188 320.871094 258.359375 320.820313 257.859375 320.78125 C 257.179688 320.710938 256.507813 320.660156 255.828125 320.589844 C 254.484375 320.46875 253.140625 320.351563 251.8125 320.21875 C 225.988281 317.851563 202.945313 315.609375 185.160156 313.71875 C 183.347656 313.53125 181.585938 313.339844 179.890625 313.148438 C 175.664063 312.691406 171.796875 312.25 168.316406 311.820313 C 158.464844 310.660156 151.75 309.679688 149.085938 308.96875 C 134.699219 305.160156 110.703125 295.140625 95.988281 284.71875 C 87.117188 278.441406 81.628906 272.011719 83.667969 266.71875 C 86.257813 259.980469 91.886719 255.910156 97.667969 252.921875 C 102.675781 250.320313 107.800781 248.53125 111.152344 246.488281 C 111.34375 246.371094 111.53125 246.261719 111.71875 246.140625 C 112.339844 245.730469 112.882813 245.308594 113.347656 244.871094 C 113.421875 244.789063 113.496094 244.730469 113.585938 244.628906 C 114.890625 243.390625 117.039063 241.300781 120.148438 238.851563 C 122.214844 237.21875 124.699219 235.429688 127.652344 233.609375 C 127.671875 233.601563 127.679688 233.601563 127.695313 233.578125 C 140.566406 225.671875 162.09375 217.289063 194.882813 219.78125 C 194.882813 219.78125 259.0625 225.101563 339.128906 232 L 339.132813 232 C 347.113281 232.679688 355.253906 233.390625 363.496094 234.101563 L 363.503906 234.101563 C 366.25 234.339844 369.011719 234.570313 371.78125 234.808594 C 375.941406 235.171875 380.121094 235.539063 384.320313 235.898438 L 384.324219 235.898438 C 391.320313 236.519531 398.363281 237.128906 405.433594 237.75 C 406.84375 237.871094 408.261719 238 409.679688 238.121094 C 412.511719 238.371094 415.339844 238.621094 418.171875 238.859375 C 423.84375 239.359375 429.511719 239.871094 435.175781 240.371094 C 438 240.621094 440.820313 240.871094 443.644531 241.109375 C 453.722656 242.011719 463.742188 242.898438 473.628906 243.789063 L 473.671875 243.789063 C 502.214844 246.371094 529.59375 248.878906 553.871094 251.191406 L 553.878906 251.191406 C 555.164063 251.308594 556.441406 251.429688 557.703125 251.550781 C 571.953125 252.921875 585.074219 254.199219 596.636719 255.378906 C 602.171875 255.949219 607.351563 256.488281 612.132813 257 C 629.4375 258.851563 641.511719 260.339844 646.222656 261.300781 C 658.457031 263.789063 672.136719 266.109375 684.617188 268.050781 C 685.648438 268.21875 686.671875 268.371094 687.679688 268.519531 C 687.730469 268.539063 687.78125 268.539063 687.835938 268.550781 C 689.382813 268.789063 690.90625 269.019531 692.40625 269.25 C 692.449219 269.25 692.496094 269.261719 692.539063 269.269531 C 694.273438 269.53125 695.96875 269.78125 697.617188 270.019531 C 700.027344 270.371094 702.34375 270.699219 704.53125 271.019531 C 705.480469 271.148438 706.398438 271.28125 707.300781 271.410156 C 718.082031 272.921875 725.257813 273.808594 725.257813 273.808594 C 725.257813 273.808594 725.300781 274.011719 725.367188 274.390625 C 725.375 274.421875 725.382813 274.449219 725.390625 274.480469 C 725.40625 274.589844 725.429688 274.699219 725.449219 274.820313 C 725.488281 275.058594 725.539063 275.351563 725.585938 275.671875 C 725.652344 276.089844 725.726563 276.578125 725.792969 277.128906 C 725.792969 277.128906 725.792969 277.140625 725.800781 277.140625 C 725.816406 277.269531 725.839844 277.410156 725.855469 277.550781 C 725.914063 278.011719 725.972656 278.488281 726.027344 279.019531 C 726.0625 279.378906 726.101563 279.761719 726.136719 280.148438 C 726.152344 280.359375 726.175781 280.578125 726.191406 280.800781 C 726.210938 281.039063 726.226563 281.28125 726.242188 281.53125 C 726.265625 281.878906 726.285156 282.238281 726.308594 282.609375 C 726.316406 282.761719 726.324219 282.910156 726.324219 283.058594 C 726.339844 283.320313 726.347656 283.578125 726.355469 283.839844 C 726.363281 283.980469 726.363281 284.121094 726.363281 284.25 C 726.367188 284.519531 726.375 284.789063 726.375 285.058594 C 726.375 285.191406 726.375 285.328125 726.382813 285.46875 "/>
<path style=" stroke:none;fill-rule:nonzero;fill:rgb(100%,56.898499%,16.899109%);fill-opacity:1;" d="M 726.382813 285.46875 C 726.375 285.738281 726.375 286.019531 726.367188 286.300781 C 726.28125 292.230469 725.128906 298.851563 721.136719 302.660156 C 721 302.800781 720.859375 302.921875 720.71875 303.050781 C 720.433594 303.289063 720.136719 303.53125 719.828125 303.738281 L 719.820313 303.738281 L 719.820313 303.75 C 719.671875 303.851563 719.507813 303.949219 719.34375 304.058594 C 719.1875 304.160156 719.023438 304.261719 718.851563 304.351563 L 718.84375 304.351563 C 718.679688 304.449219 718.507813 304.53125 718.328125 304.621094 C 718.148438 304.699219 717.96875 304.789063 717.78125 304.871094 C 717.605469 304.949219 717.410156 305.019531 717.222656 305.089844 C 717.164063 305.109375 717.109375 305.128906 717.050781 305.140625 L 717.050781 305.148438 C 716.992188 305.171875 716.933594 305.191406 716.871094 305.210938 C 716.8125 305.238281 716.746094 305.25 716.6875 305.28125 C 716.617188 305.300781 716.550781 305.320313 716.484375 305.351563 C 716.414063 305.371094 716.34375 305.390625 716.277344 305.421875 C 716.199219 305.449219 716.125 305.46875 716.058594 305.5 L 716.050781 305.5 C 715.976563 305.53125 715.902344 305.550781 715.824219 305.578125 C 715.746094 305.609375 715.671875 305.640625 715.585938 305.660156 L 715.578125 305.660156 C 715.496094 305.691406 715.421875 305.71875 715.335938 305.75 C 715.25 305.78125 715.164063 305.800781 715.078125 305.828125 C 714.902344 305.898438 714.722656 305.960938 714.535156 306.019531 L 714.527344 306.019531 C 714.4375 306.050781 714.339844 306.078125 714.25 306.121094 L 714.242188 306.121094 C 714.148438 306.160156 714.050781 306.191406 713.953125 306.21875 C 713.878906 306.238281 713.8125 306.261719 713.738281 306.289063 C 712.960938 306.558594 712.09375 306.851563 711.144531 307.160156 C 710.964844 307.210938 710.792969 307.269531 710.609375 307.328125 C 708.121094 308.160156 705.105469 309.140625 701.632813 310.230469 C 701.273438 310.339844 700.917969 310.460938 700.542969 310.578125 C 699.9375 310.769531 699.320313 310.96875 698.683594 311.171875 C 698.550781 311.210938 698.414063 311.25 698.273438 311.289063 C 698.089844 311.351563 697.886719 311.421875 697.691406 311.480469 C 697.496094 311.539063 697.304688 311.601563 697.101563 311.660156 C 696.902344 311.71875 696.707031 311.789063 696.503906 311.851563 C 696.3125 311.910156 696.101563 311.96875 695.898438 312.039063 C 695.699219 312.101563 695.496094 312.160156 695.296875 312.21875 C 695.085938 312.289063 694.878906 312.359375 694.675781 312.421875 C 694.464844 312.480469 694.257813 312.550781 694.054688 312.609375 C 694.046875 312.609375 694.046875 312.621094 694.046875 312.621094 C 693.839844 312.679688 693.628906 312.738281 693.421875 312.808594 C 693.273438 312.851563 693.121094 312.898438 692.964844 312.949219 C 692.90625 312.960938 692.847656 312.988281 692.785156 313.011719 C 692.570313 313.070313 692.359375 313.140625 692.144531 313.199219 C 691.070313 313.53125 689.972656 313.871094 688.84375 314.210938 C 688.203125 314.410156 687.546875 314.609375 686.878906 314.808594 C 686.3125 314.988281 685.738281 315.160156 685.164063 315.328125 C 684.730469 315.460938 684.296875 315.601563 683.855469 315.730469 C 682.148438 316.238281 680.394531 316.769531 678.601563 317.300781 C 678.234375 317.410156 677.875 317.511719 677.519531 317.621094 C 676.890625 317.808594 676.265625 317.988281 675.628906 318.179688 C 675.0625 318.351563 674.488281 318.519531 673.90625 318.691406 C 673.261719 318.878906 672.621094 319.058594 671.972656 319.25 C 650.476563 325.519531 624.417969 332.550781 600.261719 337.648438 C 599.414063 337.828125 598.566406 338.011719 597.722656 338.191406 C 597.304688 338.269531 596.886719 338.359375 596.46875 338.441406 C 595.621094 338.621094 594.785156 338.78125 593.949219 338.949219 C 591.449219 339.449219 588.972656 339.929688 586.53125 340.371094 C 585.714844 340.519531 584.910156 340.671875 584.105469 340.808594 C 583.699219 340.878906 583.296875 340.949219 582.902344 341.019531 C 582.101563 341.171875 581.304688 341.300781 580.511719 341.441406 C 579.722656 341.570313 578.929688 341.699219 578.144531 341.820313 C 577.367188 341.949219 576.59375 342.078125 575.816406 342.191406 C 575.046875 342.320313 574.269531 342.441406 573.515625 342.550781 C 572.746094 342.660156 571.992188 342.769531 571.246094 342.878906 C 570.492188 342.980469 569.746094 343.078125 569.007813 343.179688 C 568.640625 343.230469 568.269531 343.28125 567.902344 343.320313 C 566.4375 343.511719 564.988281 343.679688 563.578125 343.839844 C 563.222656 343.878906 562.871094 343.921875 562.519531 343.949219 C 561.816406 344.019531 561.128906 344.089844 560.4375 344.160156 C 559.0625 344.289063 557.71875 344.410156 556.402344 344.488281 C 555.417969 344.570313 554.449219 344.621094 553.5 344.671875 C 552.863281 344.710938 552.238281 344.730469 551.617188 344.761719 C 550.691406 344.800781 549.78125 344.820313 548.898438 344.828125 C 547.714844 344.851563 546.5625 344.839844 545.460938 344.820313 C 544.898438 344.808594 544.355469 344.789063 543.816406 344.769531 C 543.546875 344.761719 543.285156 344.75 543.015625 344.730469 C 542.488281 344.699219 541.972656 344.671875 541.464844 344.628906 C 541.285156 344.621094 541.097656 344.601563 540.898438 344.589844 C 540.851563 344.589844 540.808594 344.578125 540.761719 344.578125 C 540.644531 344.558594 540.515625 344.550781 540.390625 344.550781 C 539.910156 344.511719 539.410156 344.46875 538.875 344.429688 C 538.730469 344.421875 538.589844 344.410156 538.441406 344.398438 C 538.261719 344.378906 538.082031 344.371094 537.894531 344.351563 C 537.617188 344.328125 537.328125 344.308594 537.035156 344.289063 C 536.882813 344.269531 536.722656 344.261719 536.566406 344.25 C 536.410156 344.238281 536.246094 344.21875 536.089844 344.210938 C 535.761719 344.191406 535.429688 344.160156 535.09375 344.128906 C 534.761719 344.109375 534.417969 344.078125 534.066406 344.050781 C 533.886719 344.039063 533.707031 344.03125 533.527344 344.011719 C 533.089844 343.96875 532.640625 343.941406 532.175781 343.898438 C 531.960938 343.890625 531.742188 343.871094 531.527344 343.851563 C 531.070313 343.820313 530.601563 343.78125 530.125 343.738281 C 529.921875 343.71875 529.71875 343.71875 529.511719 343.691406 C 528.921875 343.640625 528.324219 343.601563 527.703125 343.550781 C 525.996094 343.421875 524.171875 343.269531 522.246094 343.121094 C 522.015625 343.101563 521.777344 343.078125 521.53125 343.058594 C 521.050781 343.019531 520.566406 342.988281 520.066406 342.949219 C 519.335938 342.878906 518.582031 342.828125 517.8125 342.769531 C 517.496094 342.730469 517.183594 342.710938 516.878906 342.691406 C 516.15625 342.628906 515.414063 342.570313 514.675781 342.511719 C 514.40625 342.488281 514.132813 342.46875 513.863281 342.449219 C 513.355469 342.410156 512.839844 342.371094 512.316406 342.328125 L 510.613281 342.191406 C 510.308594 342.160156 510.011719 342.140625 509.703125 342.121094 L 508.851563 342.039063 C 508.398438 342.011719 507.941406 341.96875 507.480469 341.929688 C 504.828125 341.71875 502.074219 341.5 499.207031 341.28125 C 498.789063 341.238281 498.378906 341.210938 497.953125 341.171875 C 497.316406 341.121094 496.675781 341.058594 496.027344 341.019531 C 494.53125 340.890625 493.003906 340.769531 491.457031 340.648438 C 491.335938 340.628906 491.21875 340.621094 491.097656 340.621094 C 489.753906 340.511719 488.394531 340.398438 487.023438 340.289063 C 486.953125 340.28125 486.886719 340.269531 486.828125 340.269531 C 478.621094 339.609375 469.78125 338.878906 460.441406 338.121094 C 459.972656 338.078125 459.503906 338.039063 459.023438 338.011719 C 457.136719 337.859375 455.222656 337.699219 453.296875 337.539063 C 452.089844 337.441406 450.871094 337.339844 449.652344 337.238281 C 449.585938 337.238281 449.519531 337.230469 449.453125 337.21875 C 448.0625 337.109375 446.660156 336.988281 445.25 336.878906 C 445.078125 336.871094 444.90625 336.839844 444.726563 336.839844 C 442.257813 336.628906 439.746094 336.421875 437.214844 336.21875 C 436.566406 336.160156 435.917969 336.109375 435.265625 336.050781 C 435.066406 336.039063 434.871094 336.019531 434.671875 336.011719 C 432.460938 335.820313 430.21875 335.640625 427.972656 335.449219 C 426.988281 335.371094 426.007813 335.289063 425.023438 335.210938 C 424.367188 335.148438 423.71875 335.101563 423.058594 335.050781 C 421.730469 334.929688 420.402344 334.820313 419.066406 334.710938 C 417.066406 334.550781 415.054688 334.378906 413.039063 334.210938 C 412.863281 334.199219 412.683594 334.179688 412.503906 334.171875 C 411.667969 334.089844 410.839844 334.03125 410.007813 333.960938 C 409.949219 333.949219 409.890625 333.949219 409.828125 333.941406 C 407.351563 333.738281 404.863281 333.53125 402.355469 333.320313 C 402.289063 333.320313 402.222656 333.308594 402.148438 333.300781 C 401.886719 333.28125 401.632813 333.261719 401.371094 333.238281 C 457.574219 300.320313 473.628906 243.789063 473.628906 243.789063 L 473.671875 243.789063 C 502.214844 246.371094 529.59375 248.878906 553.871094 251.191406 L 553.878906 251.191406 C 555.164063 251.308594 556.441406 251.429688 557.703125 251.550781 C 571.953125 252.921875 585.074219 254.199219 596.636719 255.378906 C 602.171875 255.949219 607.351563 256.488281 612.132813 257 C 629.4375 258.851563 641.511719 260.339844 646.222656 261.300781 C 658.457031 263.789063 672.136719 266.109375 684.617188 268.050781 C 685.648438 268.21875 686.671875 268.371094 687.679688 268.519531 C 687.730469 268.539063 687.78125 268.539063 687.835938 268.550781 C 689.382813 268.789063 690.90625 269.019531 692.40625 269.25 C 692.449219 269.25 692.496094 269.261719 692.539063 269.269531 C 694.273438 269.53125 695.96875 269.78125 697.617188 270.019531 C 700.027344 270.371094 702.34375 270.699219 704.53125 271.019531 C 705.480469 271.148438 706.398438 271.28125 707.300781 271.410156 C 718.082031 272.921875 725.257813 273.808594 725.257813 273.808594 C 725.257813 273.808594 725.300781 274.011719 725.367188 274.390625 C 725.375 274.421875 725.382813 274.449219 725.390625 274.480469 C 725.40625 274.589844 725.429688 274.699219 725.449219 274.820313 C 725.488281 275.058594 725.539063 275.351563 725.585938 275.671875 C 725.652344 276.089844 725.726563 276.578125 725.792969 277.128906 C 725.792969 277.128906 725.792969 277.140625 725.800781 277.140625 C 725.816406 277.269531 725.839844 277.410156 725.855469 277.550781 C 725.914063 278.011719 725.972656 278.488281 726.027344 279.019531 C 726.0625 279.378906 726.101563 279.761719 726.136719 280.148438 C 726.152344 280.359375 726.175781 280.578125 726.191406 280.800781 C 726.210938 281.039063 726.226563 281.28125 726.242188 281.53125 C 726.265625 281.878906 726.285156 282.238281 726.308594 282.609375 C 726.316406 282.761719 726.324219 282.910156 726.324219 283.058594 C 726.339844 283.320313 726.347656 283.578125 726.355469 283.839844 C 726.363281 283.980469 726.363281 284.121094 726.363281 284.25 C 726.367188 284.519531 726.375 284.789063 726.375 285.058594 C 726.375 285.191406 726.375 285.328125 726.382813 285.46875 "/>
<g clip-path="url(#clip13)" clip-rule="nonzero">
<use xlink:href="#surface15" transform="matrix(1,0,0,1,668,277)" mask="url(#mask4)"/>
</g>
<path style=" stroke:none;fill-rule:nonzero;fill:rgb(14.099121%,27.49939%,56.098938%);fill-opacity:1;" d="M 410.90625 277.21875 C 409.035156 277.050781 407.660156 275.109375 407.851563 272.898438 L 408.214844 268.660156 C 408.40625 266.460938 410.09375 264.800781 411.964844 264.96875 C 413.835938 265.140625 415.210938 267.078125 415.019531 269.28125 L 414.652344 273.519531 C 414.464844 275.71875 412.777344 277.390625 410.90625 277.21875 "/>
<path style=" stroke:none;fill-rule:nonzero;fill:rgb(14.099121%,27.49939%,56.098938%);fill-opacity:1;" d="M 393.359375 275.628906 C 391.488281 275.460938 390.113281 273.519531 390.304688 271.308594 L 390.671875 267.070313 C 390.859375 264.871094 392.546875 263.210938 394.414063 263.378906 C 396.285156 263.550781 397.660156 265.488281 397.472656 267.691406 L 397.105469 271.929688 C 396.914063 274.128906 395.230469 275.800781 393.359375 275.628906 "/>
<path style=" stroke:none;fill-rule:nonzero;fill:rgb(14.099121%,27.49939%,56.098938%);fill-opacity:1;" d="M 375.8125 274.03125 C 373.941406 273.859375 372.566406 271.921875 372.757813 269.71875 L 373.121094 265.480469 C 373.3125 263.28125 374.996094 261.621094 376.867188 261.78125 C 378.738281 261.949219 380.113281 263.890625 379.925781 266.101563 L 379.558594 270.339844 C 379.367188 272.539063 377.683594 274.199219 375.8125 274.03125 "/>
<path style=" stroke:none;fill-rule:nonzero;fill:rgb(14.099121%,27.49939%,56.098938%);fill-opacity:1;" d="M 358.265625 272.441406 C 356.394531 272.269531 355.019531 270.328125 355.210938 268.128906 L 355.574219 263.890625 C 355.765625 261.691406 357.449219 260.019531 359.320313 260.191406 C 361.191406 260.359375 362.566406 262.300781 362.378906 264.511719 L 362.011719 268.75 C 361.820313 270.949219 360.136719 272.609375 358.265625 272.441406 "/>
<path style=" stroke:none;fill-rule:nonzero;fill:rgb(14.099121%,27.49939%,56.098938%);fill-opacity:1;" d="M 340.71875 270.851563 C 338.847656 270.679688 337.472656 268.738281 337.660156 266.539063 L 338.027344 262.300781 C 338.21875 260.089844 339.902344 258.429688 341.773438 258.601563 C 343.644531 258.769531 345.019531 260.710938 344.828125 262.910156 L 344.464844 267.148438 C 344.273438 269.359375 342.589844 271.019531 340.71875 270.851563 "/>
<path style=" stroke:none;fill-rule:nonzero;fill:rgb(14.099121%,27.49939%,56.098938%);fill-opacity:1;" d="M 323.171875 269.261719 C 321.300781 269.089844 319.925781 267.148438 320.113281 264.949219 L 320.480469 260.710938 C 320.671875 258.5 322.355469 256.839844 324.226563 257.011719 C 326.097656 257.179688 327.472656 259.121094 327.28125 261.320313 L 326.917969 265.558594 C 326.726563 267.761719 325.039063 269.429688 323.171875 269.261719 "/>
<path style=" stroke:none;fill-rule:nonzero;fill:rgb(14.099121%,27.49939%,56.098938%);fill-opacity:1;" d="M 305.621094 267.671875 C 303.753906 267.5 302.378906 265.558594 302.566406 263.351563 L 302.933594 259.109375 C 303.121094 256.910156 304.808594 255.25 306.679688 255.421875 C 308.550781 255.589844 309.925781 257.53125 309.734375 259.730469 L 309.371094 263.96875 C 309.179688 266.171875 307.492188 267.839844 305.621094 267.671875 "/>
<path style=" stroke:none;fill-rule:nonzero;fill:rgb(14.099121%,27.49939%,56.098938%);fill-opacity:1;" d="M 288.074219 266.070313 C 286.203125 265.910156 284.828125 263.960938 285.019531 261.761719 L 285.386719 257.519531 C 285.574219 255.320313 287.261719 253.660156 289.132813 253.828125 C 291.003906 254 292.378906 255.941406 292.1875 258.140625 L 291.824219 262.378906 C 291.632813 264.578125 289.945313 266.238281 288.074219 266.070313 "/>
<path style=" stroke:none;fill-rule:nonzero;fill:rgb(14.099121%,27.49939%,56.098938%);fill-opacity:1;" d="M 270.527344 264.480469 C 268.65625 264.308594 267.28125 262.371094 267.472656 260.171875 L 267.839844 255.929688 C 268.027344 253.730469 269.714844 252.058594 271.585938 252.230469 C 273.457031 252.398438 274.832031 254.339844 274.640625 256.550781 L 274.277344 260.789063 C 274.085938 262.988281 272.398438 264.648438 270.527344 264.480469 "/>
<path style=" stroke:none;fill-rule:nonzero;fill:rgb(14.099121%,27.49939%,56.098938%);fill-opacity:1;" d="M 253.332031 262.921875 C 251.460938 262.75 250.085938 260.808594 250.273438 258.609375 L 250.640625 254.371094 C 250.828125 252.171875 252.515625 250.5 254.386719 250.671875 C 256.257813 250.839844 257.632813 252.78125 257.441406 254.988281 L 257.078125 259.230469 C 256.890625 261.429688 255.203125 263.089844 253.332031 262.921875 "/>
<path style=" stroke:none;fill-rule:nonzero;fill:rgb(14.099121%,27.49939%,56.098938%);fill-opacity:1;" d="M 235.785156 261.328125 C 233.914063 261.160156 232.539063 259.21875 232.726563 257.019531 L 233.09375 252.78125 C 233.28125 250.578125 234.96875 248.910156 236.839844 249.078125 C 238.710938 249.25 240.085938 251.191406 239.894531 253.390625 L 239.53125 257.640625 C 239.339844 259.839844 237.65625 261.5 235.785156 261.328125 "/>
<path style=" stroke:none;fill-rule:nonzero;fill:rgb(14.099121%,27.49939%,56.098938%);fill-opacity:1;" d="M 218.238281 259.738281 C 216.367188 259.570313 214.992188 257.628906 215.179688 255.429688 L 215.546875 251.191406 C 215.738281 248.980469 217.421875 247.320313 219.292969 247.488281 C 221.164063 247.660156 222.539063 249.601563 222.351563 251.800781 L 221.984375 256.039063 C 221.792969 258.25 220.109375 259.910156 218.238281 259.738281 "/>
<path style=" stroke:none;fill-rule:nonzero;fill:rgb(14.099121%,27.49939%,56.098938%);fill-opacity:1;" d="M 196.5 257.550781 C 194.628906 257.378906 193.253906 255.441406 193.441406 253.238281 L 193.808594 249 C 193.996094 246.800781 195.683594 245.128906 197.554688 245.300781 C 199.425781 245.46875 200.800781 247.410156 200.609375 249.621094 L 200.246094 253.859375 C 200.054688 256.058594 198.371094 257.71875 196.5 257.550781 "/>
<path style=" stroke:none;fill-rule:nonzero;fill:rgb(14.099121%,27.49939%,56.098938%);fill-opacity:1;" d="M 602.363281 296.730469 C 600.492188 296.558594 599.117188 294.621094 599.304688 292.421875 L 599.671875 288.179688 C 599.859375 285.980469 601.546875 284.320313 603.417969 284.480469 C 605.289063 284.660156 606.664063 286.601563 606.472656 288.800781 L 606.109375 293.039063 C 605.917969 295.238281 604.230469 296.898438 602.363281 296.730469 "/>
<path style=" stroke:none;fill-rule:nonzero;fill:rgb(14.099121%,27.49939%,56.098938%);fill-opacity:1;" d="M 584.8125 295.140625 C 582.945313 294.96875 581.566406 293.03125 581.757813 290.828125 L 582.125 286.589844 C 582.3125 284.390625 584 282.71875 585.871094 282.890625 C 587.742188 283.058594 589.117188 285 588.925781 287.210938 L 588.5625 291.449219 C 588.371094 293.648438 586.6875 295.308594 584.8125 295.140625 "/>
<path style=" stroke:none;fill-rule:nonzero;fill:rgb(14.099121%,27.49939%,56.098938%);fill-opacity:1;" d="M 567.269531 293.550781 C 565.394531 293.378906 564.019531 291.441406 564.210938 289.238281 L 564.578125 285 C 564.765625 282.800781 566.453125 281.128906 568.324219 281.300781 C 570.195313 281.46875 571.570313 283.410156 571.378906 285.609375 L 571.015625 289.851563 C 570.824219 292.058594 569.140625 293.71875 567.269531 293.550781 "/>
<path style=" stroke:none;fill-rule:nonzero;fill:rgb(14.099121%,27.49939%,56.098938%);fill-opacity:1;" d="M 130.816406 233.800781 L 118.855469 245.648438 L 111.714844 246.140625 C 112.339844 245.730469 112.882813 245.308594 113.34375 244.871094 C 113.421875 244.789063 113.496094 244.71875 113.585938 244.628906 C 114.890625 243.378906 117.042969 241.300781 120.144531 238.851563 C 122.214844 237.21875 124.703125 235.429688 127.652344 233.609375 C 127.671875 233.601563 127.679688 233.601563 127.695313 233.589844 "/>
<path style=" stroke:none;fill-rule:nonzero;fill:rgb(14.099121%,27.49939%,56.098938%);fill-opacity:1;" d="M 133.425781 234.230469 L 121.746094 246.199219 L 135.007813 249.148438 L 139.195313 235.488281 Z M 133.425781 234.230469 "/>
<path style=" stroke:none;fill-rule:nonzero;fill:rgb(14.099121%,27.49939%,56.098938%);fill-opacity:1;" d="M 140.441406 235.910156 L 137.359375 248.75 L 147.1875 245.808594 L 147.820313 236.871094 Z M 140.441406 235.910156 "/>
<path style=" stroke:none;fill-rule:nonzero;fill:rgb(14.099121%,27.49939%,56.098938%);fill-opacity:1;" d="M 379.746094 334.289063 C 384.898438 332.171875 386.253906 322.738281 381.988281 318.699219 C 377.726563 314.660156 371.890625 310.601563 365.328125 310.101563 C 351.835938 309.070313 357.3125 337.929688 361.789063 338.53125 C 364.421875 338.878906 372.890625 337.101563 379.746094 334.289063 "/>
<path style=" stroke:none;fill-rule:nonzero;fill:rgb(17.298889%,36.099243%,70.599365%);fill-opacity:1;" d="M 667.414063 278.550781 C 667.957031 277.78125 718.179688 260.390625 751 267.949219 L 719.390625 288.859375 L 668.570313 284.269531 C 668.570313 284.269531 664.707031 282.390625 667.414063 278.550781 "/>
<path style=" stroke:none;fill-rule:nonzero;fill:rgb(82.699585%,87.799072%,100%);fill-opacity:1;" d="M 643.167969 156.808594 C 643.167969 156.808594 609.550781 234.851563 603.152344 246.691406 C 596.753906 258.539063 582.765625 266.101563 582.765625 266.101563 L 582.683594 266.128906 L 493.613281 304.148438 C 493.613281 304.148438 382.515625 294.941406 358.339844 292.140625 L 358.335938 292.140625 C 356.144531 291.878906 354.664063 291.679688 354.050781 291.539063 C 346.703125 289.898438 343.269531 286.320313 344.679688 283.5 C 346.09375 280.691406 516.898438 259.171875 535.8125 256.960938 C 535.988281 256.929688 536.171875 256.910156 536.347656 256.890625 C 554.757813 254.609375 556.46875 248.03125 556.46875 248.03125 L 626.9375 163.191406 C 627.84375 161.621094 629.316406 160.441406 631.023438 159.550781 C 636.089844 156.898438 643.167969 156.808594 643.167969 156.808594 "/>
<path style=" stroke:none;fill-rule:nonzero;fill:rgb(41.999817%,59.199524%,96.499634%);fill-opacity:1;" d="M 631.023438 159.550781 C 612.0625 183.730469 559.605469 250.410156 554.625 254.949219 C 549.269531 259.828125 395.996094 285.710938 358.339844 292.140625 L 358.335938 292.140625 C 356.144531 291.878906 354.664063 291.679688 354.050781 291.539063 C 346.703125 289.898438 343.269531 286.320313 344.679688 283.5 C 346.089844 280.691406 516.898438 259.171875 535.8125 256.960938 C 554.722656 254.738281 556.46875 248.03125 556.46875 248.03125 L 626.9375 163.191406 C 627.839844 161.621094 629.316406 160.441406 631.023438 159.550781 "/>
<path style=" stroke:none;fill-rule:nonzero;fill:rgb(82.699585%,87.799072%,100%);fill-opacity:1;" d="M 643.167969 156.808594 C 643.167969 156.808594 609.550781 234.851563 603.152344 246.691406 C 596.753906 258.539063 582.765625 266.101563 582.765625 266.101563 L 582.683594 266.128906 C 563.332031 265.640625 547.027344 260.960938 536.347656 256.890625 C 554.757813 254.609375 556.46875 248.03125 556.46875 248.03125 L 626.9375 163.191406 C 627.84375 161.621094 629.316406 160.441406 631.023438 159.550781 C 636.089844 156.898438 643.167969 156.808594 643.167969 156.808594 "/>
<path style=" stroke:none;fill-rule:nonzero;fill:rgb(90.59906%,93.299866%,100%);fill-opacity:1;" d="M 368.382813 303.289063 L 365 342.648438 C 365 342.648438 350.679688 348.070313 328.289063 346.808594 C 314.582031 346.039063 305.453125 342.890625 300.429688 340.550781 C 297.25 339.070313 295.71875 337.929688 295.71875 337.929688 L 299.261719 296.660156 C 300.523438 295.539063 302.28125 294.71875 304.417969 294.140625 C 322.117188 289.371094 365.636719 301.699219 365.636719 301.699219 "/>
<path style=" stroke:none;fill-rule:nonzero;fill:rgb(100%,57.299805%,13.299561%);fill-opacity:1;" d="M 304.417969 294.140625 L 300.429688 340.550781 C 297.25 339.070313 295.71875 337.929688 295.71875 337.929688 L 299.261719 296.660156 C 300.523438 295.539063 302.28125 294.710938 304.417969 294.140625 "/>
</g>
</svg>
