<?xml version="1.0" encoding="UTF-8"?>
<svg xmlns="http://www.w3.org/2000/svg" xmlns:xlink="http://www.w3.org/1999/xlink" width="1122pt" height="1481pt" viewBox="0 0 1122 1481" version="1.1">
<defs>
<clipPath id="clip1">
  <path d="M 915.601563 764.6875 L 1006.039063 764.6875 L 1006.039063 895.914063 L 915.601563 895.914063 Z M 915.601563 764.6875 "/>
</clipPath>
<filter id="alpha" filterUnits="objectBoundingBox" x="0%" y="0%" width="100%" height="100%">
  <feColorMatrix type="matrix" in="SourceGraphic" values="0 0 0 0 1 0 0 0 0 1 0 0 0 0 1 0 0 0 1 0"/>
</filter>
<mask id="mask0">
  <g filter="url(#alpha)">
<rect x="0" y="0" width="1122" height="1481" style="fill:rgb(0%,0%,0%);fill-opacity:0.5;stroke:none;"/>
  </g>
</mask>
<clipPath id="clip3">
  <path d="M 0.601563 0.6875 L 91.039063 0.6875 L 91.039063 131.914063 L 0.601563 131.914063 Z M 0.601563 0.6875 "/>
</clipPath>
<clipPath id="clip2">
  <rect width="92" height="132"/>
</clipPath>
<g id="surface7" clip-path="url(#clip2)">
<g clip-path="url(#clip3)" clip-rule="nonzero">
<path style=" stroke:none;fill-rule:nonzero;fill:rgb(74.499512%,86.299133%,100%);fill-opacity:1;" d="M 0.601563 131.914063 C 0.601563 131.914063 23.925781 47.496094 75.246094 3.03125 C 82.066406 -2.878906 92.449219 3.210938 90.878906 12.171875 C 90.859375 12.320313 90.828125 12.472656 90.800781 12.621094 C 87.878906 27.878906 29.308594 84.914063 0.601563 131.914063 "/>
</g>
</g>
<clipPath id="clip4">
  <path d="M 906.539063 782.292969 L 1061.859375 782.292969 L 1061.859375 919.703125 L 906.539063 919.703125 Z M 906.539063 782.292969 "/>
</clipPath>
<mask id="mask1">
  <g filter="url(#alpha)">
<rect x="0" y="0" width="1122" height="1481" style="fill:rgb(0%,0%,0%);fill-opacity:0.5;stroke:none;"/>
  </g>
</mask>
<clipPath id="clip6">
  <path d="M 0.539063 0.292969 L 155.859375 0.292969 L 155.859375 137.703125 L 0.539063 137.703125 Z M 0.539063 0.292969 "/>
</clipPath>
<clipPath id="clip5">
  <rect width="156" height="138"/>
</clipPath>
<g id="surface10" clip-path="url(#clip5)">
<g clip-path="url(#clip6)" clip-rule="nonzero">
<path style=" stroke:none;fill-rule:nonzero;fill:rgb(74.499512%,86.299133%,100%);fill-opacity:1;" d="M 0.539063 137.703125 C 0.539063 137.703125 60.332031 37.03125 141.570313 1.171875 C 146.519531 -1.015625 152.460938 1 154.800781 5.941406 C 156.328125 9.160156 156.511719 13.839844 153.210938 20.582031 C 144.421875 38.5625 52.1875 89.183594 0.539063 137.703125 "/>
</g>
</g>
<clipPath id="clip7">
  <path d="M 95.429688 496.578125 L 185.871094 496.578125 L 185.871094 627.808594 L 95.429688 627.808594 Z M 95.429688 496.578125 "/>
</clipPath>
<mask id="mask2">
  <g filter="url(#alpha)">
<rect x="0" y="0" width="1122" height="1481" style="fill:rgb(0%,0%,0%);fill-opacity:0.5;stroke:none;"/>
  </g>
</mask>
<clipPath id="clip9">
  <path d="M 0.429688 0.578125 L 90.871094 0.578125 L 90.871094 131.808594 L 0.429688 131.808594 Z M 0.429688 0.578125 "/>
</clipPath>
<clipPath id="clip8">
  <rect width="91" height="132"/>
</clipPath>
<g id="surface13" clip-path="url(#clip8)">
<g clip-path="url(#clip9)" clip-rule="nonzero">
<path style=" stroke:none;fill-rule:nonzero;fill:rgb(74.499512%,86.299133%,100%);fill-opacity:1;" d="M 90.871094 131.808594 C 90.871094 131.808594 67.546875 47.390625 16.226563 2.921875 C 9.40625 -2.984375 -0.976563 3.101563 0.585938 12.0625 C 0.613281 12.210938 0.640625 12.363281 0.671875 12.515625 C 3.589844 27.769531 62.160156 84.808594 90.871094 131.808594 "/>
</g>
</g>
<clipPath id="clip10">
  <path d="M 39.613281 514.183594 L 194.929688 514.183594 L 194.929688 651.597656 L 39.613281 651.597656 Z M 39.613281 514.183594 "/>
</clipPath>
<mask id="mask3">
  <g filter="url(#alpha)">
<rect x="0" y="0" width="1122" height="1481" style="fill:rgb(0%,0%,0%);fill-opacity:0.5;stroke:none;"/>
  </g>
</mask>
<clipPath id="clip12">
  <path d="M 0.613281 0.183594 L 155.929688 0.183594 L 155.929688 137.597656 L 0.613281 137.597656 Z M 0.613281 0.183594 "/>
</clipPath>
<clipPath id="clip11">
  <rect width="156" height="138"/>
</clipPath>
<g id="surface16" clip-path="url(#clip11)">
<g clip-path="url(#clip12)" clip-rule="nonzero">
<path style=" stroke:none;fill-rule:nonzero;fill:rgb(74.499512%,86.299133%,100%);fill-opacity:1;" d="M 155.929688 137.597656 C 155.929688 137.597656 96.136719 36.925781 14.902344 1.0625 C 9.949219 -1.125 4.003906 0.890625 1.667969 5.835938 C 0.144531 9.050781 -0.0429688 13.734375 3.257813 20.476563 C 12.050781 38.453125 104.28125 89.074219 155.929688 137.597656 "/>
</g>
</g>
<clipPath id="clip13">
  <path d="M 676.375 185.660156 L 737.125 185.660156 L 737.125 224.421875 L 676.375 224.421875 Z M 676.375 185.660156 "/>
</clipPath>
<mask id="mask4">
  <g filter="url(#alpha)">
<rect x="0" y="0" width="1122" height="1481" style="fill:rgb(0%,0%,0%);fill-opacity:0.5;stroke:none;"/>
  </g>
</mask>
<clipPath id="clip15">
  <path d="M 0.375 0.660156 L 61.125 0.660156 L 61.125 39.421875 L 0.375 39.421875 Z M 0.375 0.660156 "/>
</clipPath>
<clipPath id="clip14">
  <rect width="62" height="40"/>
</clipPath>
<g id="surface15" clip-path="url(#clip14)">
<g clip-path="url(#clip15)" clip-rule="nonzero">
<path style=" stroke:none;fill-rule:nonzero;fill:rgb(93.699646%,43.899536%,0%);fill-opacity:1;" d="M 51.5 29.769531 C 47.816406 31.109375 36.796875 34.769531 21.683594 39.421875 C 16.636719 17.089844 0.375 7.769531 0.375 7.769531 L 60.574219 0.660156 C 61.578125 8.539063 62.429688 25.800781 51.5 29.769531 "/>
</g>
</g>
</defs>
<g id="surface1">
<path style=" stroke:none;fill-rule:nonzero;fill:rgb(90.99884%,94.499207%,97.599792%);fill-opacity:1;" d="M 80.171875 1480.109375 C 80.171875 1480.109375 -59.246094 1206.9375 29.621094 885.628906 C 118.488281 564.324219 237.636719 725.964844 231.996094 351.949219 C 226.355469 -22.058594 506.289063 -54.089844 595.351563 54.390625 C 684.414063 162.871094 683.835938 293.480469 867.789063 250.328125 C 1051.738281 207.171875 1086.761719 567.425781 1038.839844 751.007813 C 970.855469 1011.476563 1227.210938 968.601563 1065.511719 1480.453125 "/>
<path style=" stroke:none;fill-rule:nonzero;fill:rgb(86.299133%,91.799927%,100%);fill-opacity:1;" d="M 1088.648438 1261.875 C 1101.339844 1220.835938 1036.261719 1194.054688 1036.261719 1194.054688 C 1036.261719 1194.054688 958.207031 1229.679688 945.796875 1223.6875 C 933.378906 1217.695313 1006.671875 1180.007813 1006.671875 1180.007813 C 985.773438 1163.390625 911.582031 1154.308594 911.582031 1154.308594 C 911.582031 1154.308594 870.207031 1228.070313 859.628906 1219.164063 C 849.050781 1210.257813 899.550781 1155.746094 899.550781 1155.746094 C 873.871094 1148.339844 837.691406 1160.8125 837.691406 1160.8125 C 786.390625 1186.066406 806.117188 1276.851563 773.136719 1295.503906 C 773.136719 1295.503906 766.425781 1298.546875 757.347656 1305.226563 L 763.222656 1309.03125 C 764.710938 1307.746094 766.214844 1306.542969 767.730469 1305.4375 C 767.738281 1305.429688 767.746094 1305.421875 767.761719 1305.417969 C 767.78125 1305.402344 767.804688 1305.386719 767.828125 1305.371094 C 768.808594 1304.710938 770.214844 1303.773438 771.9375 1302.644531 C 771.941406 1302.644531 771.945313 1302.644531 771.945313 1302.640625 C 771.949219 1302.636719 771.953125 1302.640625 771.953125 1302.636719 C 775.996094 1300.234375 778.863281 1298.386719 780.828125 1296.980469 C 780.835938 1296.976563 780.839844 1296.972656 780.847656 1296.96875 C 793.269531 1289.261719 817.453125 1278.753906 817.296875 1279.988281 C 813.585938 1308.375 861.578125 1344.609375 893.269531 1356.9375 C 924.957031 1369.265625 917.792969 1353.332031 910.898438 1330.539063 C 904.003906 1307.75 870.234375 1290.691406 864.105469 1279.539063 C 857.980469 1268.382813 874.839844 1272.128906 892.601563 1285.6875 C 910.363281 1299.253906 907.769531 1324.257813 936.109375 1346.730469 C 964.449219 1369.199219 1023.691406 1326.511719 1023.691406 1326.511719 C 998.722656 1319.570313 968.707031 1283.695313 971.859375 1275.476563 C 975.011719 1267.257813 1029.871094 1303.835938 1039.871094 1307.234375 C 1049.871094 1310.636719 1075.96875 1302.917969 1088.648438 1261.875 "/>
<path style=" stroke:none;fill-rule:nonzero;fill:rgb(86.299133%,91.799927%,100%);fill-opacity:1;" d="M 23.050781 1114.917969 C 29.105469 1060.085938 119.148438 1062.847656 119.148438 1062.847656 C 119.148438 1062.847656 192.585938 1145.667969 210.210938 1145.15625 C 227.835938 1144.648438 161.054688 1061.90625 161.054688 1061.90625 C 194.058594 1053.378906 285.769531 1081.703125 285.769531 1081.703125 C 285.769531 1081.703125 296.6875 1190.015625 313.648438 1185.117188 C 330.605469 1180.222656 299.15625 1089.710938 299.15625 1089.710938 C 333.078125 1094.511719 369.171875 1128.164063 369.171875 1128.164063 C 416.492188 1184.757813 347.007813 1280.941406 376.199219 1320.164063 L 376.203125 1320.164063 C 376.203125 1320.164063 382.523438 1327.261719 389.769531 1339.867188 L 380.929688 1341.25 C 379.84375 1338.957031 378.695313 1336.757813 377.472656 1334.664063 C 377.46875 1334.644531 377.464844 1334.636719 377.449219 1334.625 C 377.433594 1334.59375 377.414063 1334.566406 377.398438 1334.535156 C 376.582031 1333.242188 375.410156 1331.40625 373.964844 1329.175781 C 373.960938 1329.171875 373.957031 1329.167969 373.953125 1329.164063 C 373.953125 1329.160156 373.949219 1329.160156 373.949219 1329.15625 C 370.433594 1324.214844 368.007813 1320.535156 366.417969 1317.855469 C 366.410156 1317.847656 366.40625 1317.839844 366.40625 1317.828125 C 355.757813 1302.257813 332.734375 1277.214844 332.292969 1278.753906 C 322.15625 1314.019531 247.335938 1331.328125 203.851563 1329.148438 C 160.367188 1326.964844 176.910156 1312.027344 196.632813 1288.902344 C 216.355469 1265.773438 264.695313 1263.5 277.578125 1253.628906 C 290.464844 1243.753906 268.761719 1239.289063 240.996094 1245.875 C 213.226563 1252.464844 203.507813 1283.171875 158.78125 1294.65625 C 114.054688 1306.140625 66.3125 1224.914063 66.3125 1224.914063 C 99.152344 1229.882813 152.691406 1203.550781 153.1875 1192.246094 C 153.683594 1180.941406 70.628906 1195.050781 57.15625 1193.785156 C 43.6875 1192.523438 16.996094 1169.753906 23.050781 1114.917969 "/>
<g clip-path="url(#clip1)" clip-rule="nonzero">
<use xlink:href="#surface7" transform="matrix(1,0,0,1,915,764)" mask="url(#mask0)"/>
</g>
<g clip-path="url(#clip4)" clip-rule="nonzero">
<use xlink:href="#surface10" transform="matrix(1,0,0,1,906,782)" mask="url(#mask1)"/>
</g>
<g clip-path="url(#clip7)" clip-rule="nonzero">
<use xlink:href="#surface13" transform="matrix(1,0,0,1,95,496)" mask="url(#mask2)"/>
</g>
<g clip-path="url(#clip10)" clip-rule="nonzero">
<use xlink:href="#surface16" transform="matrix(1,0,0,1,39,514)" mask="url(#mask3)"/>
</g>
<path style=" stroke:none;fill-rule:nonzero;fill:rgb(74.499512%,80.799866%,100%);fill-opacity:1;" d="M 943.199219 157.011719 L 942.785156 1398.996094 C 942.773438 1439.800781 910.269531 1472.859375 870.199219 1472.84375 L 232.359375 1472.617188 C 192.273438 1472.605469 159.789063 1439.519531 159.804688 1398.714844 L 160.21875 156.730469 C 160.230469 115.941406 192.734375 82.878906 232.820313 82.890625 L 870.660156 83.121094 C 910.730469 83.128906 943.214844 116.21875 943.199219 157.011719 "/>
<path style=" stroke:none;fill-rule:nonzero;fill:rgb(3.898621%,20.799255%,38.398743%);fill-opacity:1;" d="M 224.839844 82.511719 C 189.023438 82.5 159.875 111.589844 159.859375 147.371094 L 159.4375 1394.605469 C 159.425781 1430.378906 188.554688 1459.492188 224.371094 1459.503906 L 877.167969 1459.730469 C 912.984375 1459.746094 942.128906 1430.652344 942.140625 1394.882813 L 942.566406 147.640625 C 942.578125 111.871094 913.449219 82.75 877.636719 82.738281 Z M 877.160156 1478.355469 L 224.363281 1478.128906 C 178.265625 1478.113281 140.777344 1440.640625 140.792969 1394.601563 L 141.214844 147.359375 C 141.230469 101.320313 178.746094 63.878906 224.84375 63.890625 L 877.640625 64.121094 C 923.738281 64.140625 961.226563 101.609375 961.210938 147.648438 L 960.789063 1394.886719 C 960.773438 1440.929688 923.257813 1478.371094 877.160156 1478.355469 "/>
<path style=" stroke:none;fill-rule:nonzero;fill:rgb(100%,52.49939%,19.198608%);fill-opacity:1;" d="M 159 1390 L 943 1390 L 943 420 L 159 420 Z M 159 1390 "/>
<path style=" stroke:none;fill-rule:nonzero;fill:rgb(90.99884%,94.499207%,97.599792%);fill-opacity:1;" d="M 344.757813 160.75 C 344.757813 160.75 356.886719 132.449219 385.898438 135.601563 C 385.898438 135.601563 428.015625 88.429688 472.925781 129.308594 C 472.925781 129.308594 520.667969 119.179688 556.023438 138.078125 C 579.597656 150.679688 587.382813 163.898438 587.382813 163.898438 "/>
<path style=" stroke:none;fill-rule:nonzero;fill:rgb(90.99884%,94.499207%,97.599792%);fill-opacity:1;" d="M 765.046875 229.238281 C 765.210938 229.230469 765.378906 229.21875 765.542969 229.21875 C 767.554688 229.179688 769.484375 228.199219 770.964844 226.378906 C 777.628906 218.179688 797.925781 197.789063 819.78125 221.21875 C 821.492188 223.050781 823.699219 223.808594 825.863281 223.378906 C 834.304688 221.71875 856.359375 219.03125 873.628906 231.480469 C 874.097656 231.820313 874.558594 232.160156 875.007813 232.5 C 882.195313 237.929688 879.179688 252.730469 870.9375 252.578125 L 765.28125 250.730469 C 754.925781 250.550781 754.695313 229.761719 765.046875 229.238281 "/>
<path style=" stroke:none;fill-rule:nonzero;fill:rgb(100%,87.799072%,77.2995%);fill-opacity:1;" d="M 881.636719 1361 L 216.367188 1361 C 198.492188 1361 184 1346.511719 184 1328.636719 L 184 490.367188 C 184 472.488281 198.492188 458 216.367188 458 L 881.636719 458 C 899.511719 458 914 472.488281 914 490.363281 L 914 1328.636719 C 914 1346.511719 899.511719 1361 881.636719 1361 "/>
<path style=" stroke:none;fill-rule:nonzero;fill:rgb(17.298889%,20.799255%,32.499695%);fill-opacity:1;" d="M 1123.628906 1481 L 1.367188 1480.605469 C 0.613281 1480.605469 0 1479.691406 0 1478.570313 L 0 1477.527344 C 0 1476.40625 0.617188 1475.492188 1.367188 1475.492188 L 1123.628906 1475.886719 C 1124.390625 1475.886719 1125 1476.804688 1125 1477.921875 L 1125 1478.964844 C 1125 1480.085938 1124.378906 1481 1123.628906 1481 "/>
<path style=" stroke:none;fill-rule:nonzero;fill:rgb(82.699585%,87.799072%,100%);fill-opacity:1;" d="M 160.332031 279.140625 C 160.332031 279.140625 194.132813 277.671875 201.496094 294.320313 C 201.496094 294.320313 227.523438 261.03125 282.5 263.769531 C 337.476563 266.519531 347.632813 286.808594 347.632813 286.808594 C 347.632813 286.808594 379.132813 280.019531 405.289063 289.070313 C 431.449219 298.128906 429.769531 314.730469 429.769531 314.730469 C 429.769531 314.730469 453.75 293.601563 501.957031 301.148438 C 501.957031 301.148438 492.339844 270.601563 550.308594 263.609375 C 608.28125 256.628906 632.898438 268.699219 632.898438 268.699219 C 632.898438 268.699219 698.550781 242.160156 756.671875 275.429688 C 756.671875 275.429688 799.257813 270.238281 820.078125 286.699219 C 820.078125 286.699219 862.738281 254.339844 943 260.03125 L 943 420 L 160 420 "/>
<path style=" stroke:none;fill-rule:nonzero;fill:rgb(90.99884%,94.499207%,97.599792%);fill-opacity:1;" d="M 161.203125 319.75 C 161.203125 319.75 197.644531 304.929688 230.171875 339.449219 C 230.171875 339.449219 238.097656 324.261719 258.746094 328.019531 C 279.394531 331.78125 285.078125 362.460938 285.078125 362.460938 C 285.078125 362.460938 357.320313 324.089844 393.085938 420 L 161 420 "/>
<path style=" stroke:none;fill-rule:nonzero;fill:rgb(90.99884%,94.499207%,97.599792%);fill-opacity:1;" d="M 628 420 C 628 420 630.578125 385.539063 683.941406 377.300781 C 683.941406 377.300781 656.308594 369.058594 670.238281 348.578125 C 684.167969 328.109375 718 326.609375 718 326.609375 C 718 326.609375 721.535156 289.558594 817.476563 295.960938 C 844.414063 297.75 872.925781 308.621094 877.386719 327.609375 C 877.386719 327.609375 887.789063 316.058594 909.339844 316.839844 C 909.339844 316.839844 912.007813 295.769531 943 295.960938 L 943 420 "/>
<path style=" stroke:none;fill-rule:nonzero;fill:rgb(41.999817%,59.199524%,96.499634%);fill-opacity:1;" d="M 748.4375 64.320313 L 716.832031 180.050781 L 715.835938 179.929688 L 607.839844 166.058594 C 607.839844 166.058594 657.859375 155.070313 663.058594 148.71875 C 667.953125 142.738281 719.890625 71.828125 735.082031 64.25 C 736.015625 63.78125 736.808594 63.558594 737.445313 63.601563 "/>
<path style=" stroke:none;fill-rule:nonzero;fill:rgb(14.099121%,27.49939%,56.098938%);fill-opacity:1;" d="M 715.835938 179.921875 L 607.839844 166.058594 C 607.839844 166.058594 657.859375 155.070313 663.058594 148.71875 C 667.953125 142.738281 719.890625 71.828125 735.082031 64.25 C 721.632813 84.890625 690.457031 134.488281 691.777344 148.921875 C 693.039063 162.660156 708.246094 174.71875 715.835938 179.921875 "/>
<path style=" stroke:none;fill-rule:nonzero;fill:rgb(94.499207%,50.19989%,8.999634%);fill-opacity:1;" d="M 727.5 214.769531 C 723.816406 216.101563 712.800781 219.769531 697.679688 224.421875 C 654.222656 237.78125 576.910156 259.230469 542.796875 256.578125 C 512.191406 254.199219 350.34375 241.140625 238.394531 230.769531 C 265.480469 180.488281 299.257813 152.71875 330.167969 137.488281 C 460.601563 148.78125 631.179688 164.050781 652.882813 168.480469 C 688.585938 175.769531 735.949219 181.699219 735.949219 181.699219 C 735.949219 181.699219 736.269531 183.230469 736.574219 185.660156 C 737.578125 193.550781 738.425781 210.800781 727.5 214.769531 "/>
<path style=" stroke:none;fill-rule:nonzero;fill:rgb(82.699585%,87.799072%,100%);fill-opacity:1;" d="M 737.132813 194.03125 C 737.121094 194.308594 737.121094 194.609375 737.113281 194.898438 C 737.019531 201.179688 735.8125 208.179688 731.613281 212.210938 C 731.472656 212.351563 731.324219 212.480469 731.175781 212.609375 C 730.878906 212.871094 730.5625 213.121094 730.242188 213.339844 L 730.234375 213.339844 L 730.234375 213.351563 C 730.074219 213.460938 729.902344 213.570313 729.730469 213.679688 C 729.566406 213.78125 729.394531 213.890625 729.214844 213.988281 L 729.203125 213.988281 C 729.03125 214.089844 728.851563 214.179688 728.664063 214.269531 C 728.476563 214.359375 728.285156 214.449219 728.09375 214.539063 C 727.902344 214.621094 727.699219 214.699219 727.503906 214.769531 C 727.441406 214.800781 727.386719 214.808594 727.320313 214.828125 L 727.320313 214.839844 C 727.261719 214.851563 727.195313 214.878906 727.132813 214.898438 C 727.070313 214.929688 727 214.941406 726.9375 214.96875 L 726.9375 214.980469 C 726.867188 214.988281 726.796875 215.019531 726.726563 215.039063 L 726.726563 215.050781 C 726.65625 215.070313 726.574219 215.089844 726.507813 215.128906 C 726.429688 215.148438 726.351563 215.179688 726.277344 215.199219 L 726.273438 215.199219 L 726.273438 215.210938 C 726.191406 215.230469 726.113281 215.261719 726.035156 215.289063 C 725.949219 215.320313 725.871094 215.351563 725.785156 215.378906 L 725.777344 215.378906 C 725.691406 215.410156 725.613281 215.429688 725.519531 215.46875 C 725.433594 215.5 725.339844 215.519531 725.25 215.558594 C 725.0625 215.621094 724.875 215.691406 724.679688 215.761719 L 724.671875 215.761719 C 724.574219 215.789063 724.476563 215.820313 724.378906 215.859375 L 724.371094 215.859375 C 724.269531 215.898438 724.167969 215.929688 724.066406 215.960938 C 723.988281 215.988281 723.917969 216.011719 723.839844 216.039063 C 723.023438 216.320313 722.113281 216.628906 721.117188 216.960938 C 720.929688 217.019531 720.746094 217.078125 720.550781 217.140625 C 717.9375 218.011719 714.769531 219.050781 711.117188 220.210938 C 710.742188 220.328125 710.367188 220.449219 709.976563 220.570313 C 709.339844 220.78125 708.6875 220.988281 708.023438 221.199219 C 707.878906 221.238281 707.738281 221.289063 707.589844 221.328125 C 707.394531 221.398438 707.179688 221.460938 706.976563 221.53125 C 706.773438 221.589844 706.570313 221.648438 706.359375 221.71875 C 706.144531 221.789063 705.941406 221.851563 705.730469 221.921875 C 705.527344 221.980469 705.304688 222.050781 705.09375 222.121094 C 704.882813 222.179688 704.671875 222.25 704.457031 222.320313 C 704.238281 222.378906 704.019531 222.460938 703.808594 222.519531 C 703.589844 222.589844 703.367188 222.660156 703.15625 222.71875 C 703.148438 222.71875 703.148438 222.730469 703.148438 222.730469 C 702.929688 222.800781 702.710938 222.859375 702.488281 222.929688 C 702.332031 222.980469 702.175781 223.03125 702.011719 223.089844 C 701.949219 223.101563 701.886719 223.121094 701.820313 223.148438 C 701.59375 223.210938 701.375 223.28125 701.148438 223.339844 C 700.019531 223.699219 698.863281 224.058594 697.679688 224.410156 C 697.003906 224.628906 696.316406 224.839844 695.613281 225.050781 C 695.019531 225.230469 694.414063 225.421875 693.8125 225.601563 C 693.355469 225.738281 692.902344 225.878906 692.4375 226.019531 C 690.640625 226.558594 688.796875 227.121094 686.914063 227.679688 C 686.527344 227.800781 686.152344 227.910156 685.777344 228.019531 C 685.117188 228.21875 684.457031 228.410156 683.792969 228.609375 C 683.195313 228.789063 682.589844 228.96875 681.980469 229.148438 C 681.304688 229.351563 680.628906 229.550781 679.945313 229.75 C 657.359375 236.371094 629.976563 243.800781 604.585938 249.199219 C 603.699219 249.390625 602.804688 249.570313 601.914063 249.761719 C 601.476563 249.851563 601.035156 249.949219 600.597656 250.039063 C 599.710938 250.21875 598.832031 250.390625 597.953125 250.570313 C 595.324219 251.101563 592.722656 251.601563 590.15625 252.078125 C 589.300781 252.230469 588.453125 252.390625 587.605469 252.539063 C 587.183594 252.609375 586.757813 252.691406 586.34375 252.761719 C 585.503906 252.910156 584.664063 253.050781 583.832031 253.199219 C 583 253.339844 582.167969 253.480469 581.34375 253.609375 C 580.527344 253.738281 579.710938 253.878906 578.894531 254 C 578.089844 254.128906 577.273438 254.261719 576.480469 254.371094 C 575.671875 254.488281 574.878906 254.609375 574.09375 254.71875 C 573.300781 254.828125 572.519531 254.941406 571.738281 255.050781 C 571.355469 255.089844 570.964844 255.140625 570.578125 255.191406 C 569.039063 255.390625 567.519531 255.578125 566.035156 255.738281 C 565.660156 255.78125 565.289063 255.820313 564.921875 255.859375 C 564.183594 255.929688 563.460938 256.011719 562.734375 256.078125 C 561.289063 256.210938 559.875 256.339844 558.496094 256.429688 C 557.460938 256.511719 556.441406 256.570313 555.445313 256.621094 C 554.777344 256.660156 554.117188 256.691406 553.464844 256.710938 C 552.492188 256.75 551.535156 256.78125 550.609375 256.789063 C 549.363281 256.808594 548.152344 256.800781 546.992188 256.78125 C 546.40625 256.769531 545.832031 256.738281 545.265625 256.71875 C 544.984375 256.710938 544.710938 256.699219 544.425781 256.679688 C 543.871094 256.648438 543.328125 256.621094 542.796875 256.578125 C 542.609375 256.558594 542.410156 256.550781 542.199219 256.53125 C 542.152344 256.53125 542.105469 256.519531 542.058594 256.519531 C 541.933594 256.5 541.800781 256.5 541.664063 256.488281 C 541.164063 256.449219 540.636719 256.410156 540.074219 256.359375 C 539.925781 256.351563 539.773438 256.339844 539.617188 256.328125 C 539.429688 256.308594 539.242188 256.300781 539.046875 256.28125 C 538.753906 256.261719 538.449219 256.238281 538.144531 256.210938 C 537.976563 256.199219 537.8125 256.191406 537.648438 256.171875 C 537.484375 256.160156 537.3125 256.148438 537.144531 256.128906 C 536.800781 256.109375 536.453125 256.078125 536.101563 256.050781 C 535.75 256.019531 535.390625 255.988281 535.019531 255.96875 C 534.832031 255.949219 534.644531 255.941406 534.453125 255.921875 C 533.992188 255.878906 533.519531 255.851563 533.035156 255.808594 C 532.808594 255.789063 532.578125 255.769531 532.351563 255.75 C 531.875 255.71875 531.378906 255.679688 530.878906 255.628906 C 530.664063 255.621094 530.453125 255.609375 530.234375 255.578125 C 529.613281 255.53125 528.984375 255.480469 528.335938 255.429688 C 526.539063 255.289063 524.625 255.140625 522.597656 254.980469 C 522.355469 254.949219 522.105469 254.941406 521.847656 254.910156 C 521.34375 254.878906 520.835938 254.839844 520.308594 254.800781 C 519.539063 254.730469 518.746094 254.671875 517.9375 254.609375 C 517.609375 254.570313 517.28125 254.550781 516.957031 254.519531 C 516.195313 254.460938 515.421875 254.398438 514.644531 254.339844 C 514.359375 254.320313 514.070313 254.289063 513.789063 254.269531 C 513.253906 254.21875 512.714844 254.179688 512.164063 254.140625 L 510.375 253.988281 C 510.054688 253.96875 509.738281 253.941406 509.417969 253.921875 C 509.121094 253.890625 508.820313 253.871094 508.523438 253.839844 C 508.046875 253.808594 507.566406 253.769531 507.078125 253.730469 C 504.292969 253.5 501.398438 253.269531 498.386719 253.03125 C 497.945313 252.988281 497.515625 252.960938 497.066406 252.921875 C 496.402344 252.859375 495.726563 252.808594 495.042969 252.761719 C 493.472656 252.621094 491.867188 252.5 490.242188 252.371094 C 490.117188 252.351563 489.992188 252.339844 489.863281 252.328125 C 488.453125 252.21875 487.023438 252.101563 485.582031 251.988281 C 485.511719 251.980469 485.441406 251.96875 485.378906 251.96875 C 476.753906 251.261719 467.464844 250.5 457.648438 249.699219 C 457.152344 249.660156 456.660156 249.609375 456.15625 249.570313 C 454.171875 249.410156 452.164063 249.25 450.140625 249.078125 C 448.867188 248.96875 447.589844 248.871094 446.3125 248.761719 C 446.238281 248.761719 446.171875 248.75 446.097656 248.738281 C 444.640625 248.628906 443.164063 248.5 441.683594 248.378906 C 441.5 248.371094 441.320313 248.339844 441.132813 248.339844 C 438.535156 248.121094 435.898438 247.898438 433.238281 247.679688 C 432.554688 247.621094 431.875 247.570313 431.191406 247.511719 C 430.980469 247.488281 430.773438 247.46875 430.5625 247.460938 C 428.242188 247.269531 425.886719 247.070313 423.527344 246.871094 C 422.488281 246.789063 421.460938 246.699219 420.425781 246.609375 C 419.734375 246.550781 419.054688 246.5 418.363281 246.449219 C 416.964844 246.320313 415.570313 246.210938 414.164063 246.089844 C 412.0625 245.921875 409.949219 245.738281 407.832031 245.558594 C 407.644531 245.550781 407.457031 245.53125 407.269531 245.519531 C 406.390625 245.429688 405.519531 245.371094 404.648438 245.289063 C 404.585938 245.28125 404.523438 245.28125 404.460938 245.28125 C 401.855469 245.058594 399.242188 244.839844 396.605469 244.621094 C 396.535156 244.609375 396.464844 244.609375 396.386719 244.601563 C 396.109375 244.570313 395.84375 244.558594 395.570313 244.53125 C 394.023438 244.410156 392.46875 244.269531 390.917969 244.140625 C 389.746094 244.039063 388.570313 243.949219 387.394531 243.839844 C 386.664063 243.78125 385.933594 243.730469 385.203125 243.660156 C 382.152344 243.410156 379.09375 243.148438 376.015625 242.890625 L 375.9375 242.878906 C 370.847656 242.441406 365.722656 242.011719 360.574219 241.570313 C 359.867188 241.511719 359.171875 241.449219 358.464844 241.390625 L 358.316406 241.378906 C 356.054688 241.191406 353.804688 240.988281 351.535156 240.800781 C 350.839844 240.738281 350.148438 240.679688 349.449219 240.621094 C 347.503906 240.449219 345.558594 240.28125 343.613281 240.121094 C 339.65625 239.769531 335.695313 239.429688 331.738281 239.089844 C 329.238281 238.878906 326.734375 238.660156 324.238281 238.441406 C 322.671875 238.300781 321.101563 238.160156 319.539063 238.03125 C 315.796875 237.710938 312.070313 237.378906 308.351563 237.058594 C 308.171875 237.039063 307.996094 237.03125 307.816406 237.011719 C 305.488281 236.800781 303.148438 236.601563 300.824219 236.398438 C 297.515625 236.109375 294.203125 235.808594 290.914063 235.519531 C 289.597656 235.398438 288.28125 235.28125 286.96875 235.171875 C 286.570313 235.140625 286.171875 235.089844 285.769531 235.058594 C 283.109375 234.828125 280.472656 234.589844 277.84375 234.359375 C 277.453125 234.320313 277.066406 234.289063 276.683594 234.261719 C 274.878906 234.089844 273.082031 233.929688 271.292969 233.769531 C 263.707031 233.089844 256.253906 232.421875 248.972656 231.738281 C 248.09375 231.671875 247.222656 231.589844 246.34375 231.5 C 245.808594 231.449219 245.273438 231.398438 244.75 231.359375 C 244.035156 231.289063 243.328125 231.230469 242.613281 231.160156 C 241.203125 231.03125 239.789063 230.910156 238.394531 230.769531 C 211.253906 228.261719 187.039063 225.898438 168.351563 223.890625 C 166.445313 223.691406 164.59375 223.488281 162.8125 223.289063 C 158.371094 222.808594 154.304688 222.339844 150.648438 221.890625 C 140.292969 220.660156 133.238281 219.621094 130.4375 218.871094 C 115.320313 214.839844 90.101563 204.25 74.636719 193.238281 C 65.316406 186.589844 59.546875 179.800781 61.691406 174.210938 C 64.410156 167.078125 70.328125 162.78125 76.402344 159.621094 C 81.664063 156.871094 87.046875 154.980469 90.570313 152.820313 C 90.777344 152.699219 90.972656 152.570313 91.167969 152.449219 C 91.820313 152.019531 92.390625 151.570313 92.878906 151.101563 C 92.957031 151.019531 93.035156 150.949219 93.128906 150.859375 C 94.503906 149.539063 96.761719 147.328125 100.027344 144.738281 C 102.199219 143.019531 104.8125 141.128906 107.910156 139.199219 C 107.933594 139.191406 107.941406 139.191406 107.960938 139.171875 C 121.484375 130.800781 144.105469 121.949219 178.566406 124.578125 C 178.566406 124.578125 246.011719 130.210938 330.15625 137.5 L 330.164063 137.5 C 338.550781 138.21875 347.101563 138.960938 355.765625 139.71875 L 355.773438 139.71875 C 358.660156 139.96875 361.5625 140.21875 364.476563 140.46875 C 368.84375 140.851563 373.238281 141.238281 377.648438 141.628906 L 377.65625 141.628906 C 385.007813 142.269531 392.40625 142.921875 399.839844 143.570313 C 401.320313 143.710938 402.8125 143.839844 404.300781 143.960938 C 407.277344 144.230469 410.25 144.488281 413.222656 144.75 C 419.1875 145.28125 425.140625 145.808594 431.097656 146.339844 C 434.0625 146.609375 437.027344 146.871094 439.992188 147.128906 C 450.585938 148.078125 461.117188 149.019531 471.503906 149.96875 L 471.550781 149.96875 C 501.546875 152.691406 530.320313 155.339844 555.835938 157.789063 L 555.84375 157.789063 C 557.191406 157.910156 558.535156 158.039063 559.859375 158.171875 C 574.839844 159.609375 588.625 160.96875 600.777344 162.21875 C 606.59375 162.820313 612.039063 163.390625 617.058594 163.929688 C 635.246094 165.890625 647.933594 167.460938 652.886719 168.480469 C 665.746094 171.101563 680.117188 173.558594 693.238281 175.609375 C 694.320313 175.789063 695.398438 175.949219 696.457031 176.109375 C 696.511719 176.128906 696.566406 176.128906 696.621094 176.140625 C 698.246094 176.390625 699.84375 176.640625 701.421875 176.878906 C 701.46875 176.878906 701.515625 176.890625 701.5625 176.898438 C 703.382813 177.171875 705.164063 177.441406 706.898438 177.699219 C 709.433594 178.070313 711.863281 178.421875 714.164063 178.75 C 715.160156 178.890625 716.125 179.03125 717.074219 179.160156 C 728.40625 180.761719 735.945313 181.699219 735.945313 181.699219 C 735.945313 181.699219 735.992188 181.921875 736.0625 182.320313 C 736.070313 182.351563 736.078125 182.378906 736.085938 182.410156 C 736.101563 182.519531 736.125 182.640625 736.148438 182.769531 C 736.1875 183.03125 736.242188 183.328125 736.289063 183.671875 C 736.359375 184.109375 736.441406 184.628906 736.511719 185.210938 C 736.511719 185.210938 736.511719 185.21875 736.519531 185.21875 C 736.535156 185.359375 736.558594 185.511719 736.574219 185.660156 C 736.636719 186.140625 736.699219 186.648438 736.753906 187.210938 C 736.792969 187.589844 736.832031 188 736.871094 188.398438 C 736.886719 188.628906 736.910156 188.859375 736.925781 189.089844 C 736.949219 189.351563 736.964844 189.601563 736.980469 189.859375 C 737.003906 190.230469 737.027344 190.609375 737.050781 191.011719 C 737.058594 191.160156 737.066406 191.320313 737.066406 191.480469 C 737.082031 191.75 737.089844 192.03125 737.097656 192.308594 C 737.105469 192.460938 737.105469 192.601563 737.105469 192.738281 C 737.113281 193.019531 737.121094 193.308594 737.121094 193.589844 C 737.121094 193.730469 737.121094 193.878906 737.132813 194.03125 "/>
<path style=" stroke:none;fill-rule:nonzero;fill:rgb(100%,56.898499%,16.899109%);fill-opacity:1;" d="M 737.132813 194.03125 C 737.121094 194.308594 737.121094 194.609375 737.113281 194.898438 C 737.019531 201.179688 735.8125 208.179688 731.613281 212.210938 C 731.472656 212.351563 731.324219 212.480469 731.175781 212.609375 C 730.878906 212.871094 730.5625 213.121094 730.242188 213.339844 L 730.234375 213.339844 L 730.234375 213.351563 C 730.074219 213.460938 729.902344 213.570313 729.730469 213.679688 C 729.566406 213.78125 729.394531 213.890625 729.214844 213.988281 L 729.203125 213.988281 C 729.03125 214.089844 728.851563 214.179688 728.664063 214.269531 C 728.476563 214.359375 728.285156 214.449219 728.09375 214.539063 C 727.902344 214.621094 727.699219 214.699219 727.503906 214.769531 C 727.441406 214.800781 727.386719 214.808594 727.320313 214.828125 L 727.320313 214.839844 C 727.261719 214.851563 727.195313 214.878906 727.132813 214.898438 C 727.070313 214.929688 727 214.941406 726.9375 214.96875 L 726.9375 214.980469 C 726.867188 214.988281 726.796875 215.019531 726.726563 215.039063 L 726.726563 215.050781 C 726.65625 215.070313 726.574219 215.089844 726.507813 215.128906 C 726.429688 215.148438 726.351563 215.179688 726.277344 215.199219 L 726.273438 215.199219 L 726.273438 215.210938 C 726.191406 215.230469 726.113281 215.261719 726.035156 215.289063 C 725.949219 215.320313 725.871094 215.351563 725.785156 215.378906 L 725.777344 215.378906 C 725.691406 215.410156 725.613281 215.429688 725.519531 215.46875 C 725.433594 215.5 725.339844 215.519531 725.25 215.558594 C 725.0625 215.621094 724.875 215.691406 724.679688 215.761719 L 724.671875 215.761719 C 724.574219 215.789063 724.476563 215.820313 724.378906 215.859375 L 724.371094 215.859375 C 724.269531 215.898438 724.167969 215.929688 724.066406 215.960938 C 723.988281 215.988281 723.917969 216.011719 723.839844 216.039063 C 723.023438 216.320313 722.113281 216.628906 721.117188 216.960938 C 720.929688 217.019531 720.746094 217.078125 720.550781 217.140625 C 717.9375 218.011719 714.769531 219.050781 711.117188 220.210938 C 710.742188 220.328125 710.367188 220.449219 709.976563 220.570313 C 709.339844 220.78125 708.6875 220.988281 708.023438 221.199219 C 707.878906 221.238281 707.738281 221.289063 707.589844 221.328125 C 707.394531 221.398438 707.179688 221.460938 706.976563 221.53125 C 706.773438 221.589844 706.570313 221.648438 706.359375 221.71875 C 706.144531 221.789063 705.941406 221.851563 705.730469 221.921875 C 705.527344 221.980469 705.304688 222.050781 705.09375 222.121094 C 704.882813 222.179688 704.671875 222.25 704.457031 222.320313 C 704.238281 222.378906 704.019531 222.460938 703.808594 222.519531 C 703.589844 222.589844 703.367188 222.660156 703.15625 222.71875 C 703.148438 222.71875 703.148438 222.730469 703.148438 222.730469 C 702.929688 222.800781 702.710938 222.859375 702.488281 222.929688 C 702.332031 222.980469 702.175781 223.03125 702.011719 223.089844 C 701.949219 223.101563 701.886719 223.121094 701.820313 223.148438 C 701.59375 223.210938 701.375 223.28125 701.148438 223.339844 C 700.019531 223.699219 698.863281 224.058594 697.679688 224.410156 C 697.003906 224.628906 696.316406 224.839844 695.613281 225.050781 C 695.019531 225.230469 694.414063 225.421875 693.8125 225.601563 C 693.355469 225.738281 692.902344 225.878906 692.4375 226.019531 C 690.640625 226.558594 688.796875 227.121094 686.914063 227.679688 C 686.527344 227.800781 686.152344 227.910156 685.777344 228.019531 C 685.117188 228.21875 684.457031 228.410156 683.792969 228.609375 C 683.195313 228.789063 682.589844 228.96875 681.980469 229.148438 C 681.304688 229.351563 680.628906 229.550781 679.945313 229.75 C 657.359375 236.371094 629.976563 243.800781 604.585938 249.199219 C 603.699219 249.390625 602.804688 249.570313 601.914063 249.761719 C 601.476563 249.851563 601.035156 249.949219 600.597656 250.039063 C 599.710938 250.21875 598.832031 250.390625 597.953125 250.570313 C 595.324219 251.101563 592.722656 251.601563 590.15625 252.078125 C 589.300781 252.230469 588.453125 252.390625 587.605469 252.539063 C 587.183594 252.609375 586.757813 252.691406 586.34375 252.761719 C 585.503906 252.910156 584.664063 253.050781 583.832031 253.199219 C 583 253.339844 582.167969 253.480469 581.34375 253.609375 C 580.527344 253.738281 579.710938 253.878906 578.894531 254 C 578.089844 254.128906 577.273438 254.261719 576.480469 254.371094 C 575.671875 254.488281 574.878906 254.609375 574.09375 254.71875 C 573.300781 254.828125 572.519531 254.941406 571.738281 255.050781 C 571.355469 255.089844 570.964844 255.140625 570.578125 255.191406 C 569.039063 255.390625 567.519531 255.578125 566.035156 255.738281 C 565.660156 255.78125 565.289063 255.820313 564.921875 255.859375 C 564.183594 255.929688 563.460938 256.011719 562.734375 256.078125 C 561.289063 256.210938 559.875 256.339844 558.496094 256.429688 C 557.460938 256.511719 556.441406 256.570313 555.445313 256.621094 C 554.777344 256.660156 554.117188 256.691406 553.464844 256.710938 C 552.492188 256.75 551.535156 256.78125 550.609375 256.789063 C 549.363281 256.808594 548.152344 256.800781 546.992188 256.78125 C 546.40625 256.769531 545.832031 256.738281 545.265625 256.71875 C 544.984375 256.710938 544.710938 256.699219 544.425781 256.679688 C 543.871094 256.648438 543.328125 256.621094 542.796875 256.578125 C 542.609375 256.558594 542.410156 256.550781 542.199219 256.53125 C 542.152344 256.53125 542.105469 256.519531 542.058594 256.519531 C 541.933594 256.5 541.800781 256.5 541.664063 256.488281 C 541.164063 256.449219 540.636719 256.410156 540.074219 256.359375 C 539.925781 256.351563 539.773438 256.339844 539.617188 256.328125 C 539.429688 256.308594 539.242188 256.300781 539.046875 256.28125 C 538.753906 256.261719 538.449219 256.238281 538.144531 256.210938 C 537.976563 256.199219 537.8125 256.191406 537.648438 256.171875 C 537.484375 256.160156 537.3125 256.148438 537.144531 256.128906 C 536.800781 256.109375 536.453125 256.078125 536.101563 256.050781 C 535.75 256.019531 535.390625 255.988281 535.019531 255.96875 C 534.832031 255.949219 534.644531 255.941406 534.453125 255.921875 C 533.992188 255.878906 533.519531 255.851563 533.035156 255.808594 C 532.808594 255.789063 532.578125 255.769531 532.351563 255.75 C 531.875 255.71875 531.378906 255.679688 530.878906 255.628906 C 530.664063 255.621094 530.453125 255.609375 530.234375 255.578125 C 529.613281 255.53125 528.984375 255.480469 528.335938 255.429688 C 526.539063 255.289063 524.625 255.140625 522.597656 254.980469 C 522.355469 254.949219 522.105469 254.941406 521.847656 254.910156 C 521.34375 254.878906 520.835938 254.839844 520.308594 254.800781 C 519.539063 254.730469 518.746094 254.671875 517.9375 254.609375 C 517.609375 254.570313 517.28125 254.550781 516.957031 254.519531 C 516.195313 254.460938 515.421875 254.398438 514.644531 254.339844 C 514.359375 254.320313 514.070313 254.289063 513.789063 254.269531 C 513.253906 254.21875 512.714844 254.179688 512.164063 254.140625 L 510.375 253.988281 C 510.054688 253.96875 509.738281 253.941406 509.417969 253.921875 C 509.121094 253.890625 508.820313 253.871094 508.523438 253.839844 C 508.046875 253.808594 507.566406 253.769531 507.078125 253.730469 C 504.292969 253.5 501.398438 253.269531 498.386719 253.03125 C 497.945313 252.988281 497.515625 252.960938 497.066406 252.921875 C 496.402344 252.859375 495.726563 252.808594 495.042969 252.761719 C 493.472656 252.621094 491.867188 252.5 490.242188 252.371094 C 490.117188 252.351563 489.992188 252.339844 489.863281 252.328125 C 488.453125 252.21875 487.023438 252.101563 485.582031 251.988281 C 485.511719 251.980469 485.441406 251.96875 485.378906 251.96875 C 476.753906 251.261719 467.464844 250.5 457.648438 249.699219 C 457.152344 249.660156 456.660156 249.609375 456.15625 249.570313 C 454.171875 249.410156 452.164063 249.25 450.140625 249.078125 C 448.867188 248.96875 447.589844 248.871094 446.3125 248.761719 C 446.238281 248.761719 446.171875 248.75 446.097656 248.738281 C 444.640625 248.628906 443.164063 248.5 441.683594 248.378906 C 441.5 248.371094 441.320313 248.339844 441.132813 248.339844 C 438.535156 248.121094 435.898438 247.898438 433.238281 247.679688 C 432.554688 247.621094 431.875 247.570313 431.191406 247.511719 C 430.980469 247.488281 430.773438 247.46875 430.5625 247.460938 C 428.242188 247.269531 425.886719 247.070313 423.527344 246.871094 C 422.488281 246.789063 421.460938 246.699219 420.425781 246.609375 C 419.734375 246.550781 419.054688 246.5 418.363281 246.449219 C 416.964844 246.320313 415.570313 246.210938 414.164063 246.089844 C 412.0625 245.921875 409.949219 245.738281 407.832031 245.558594 C 407.644531 245.550781 407.457031 245.53125 407.269531 245.519531 C 406.390625 245.429688 405.519531 245.371094 404.648438 245.289063 C 404.585938 245.28125 404.523438 245.28125 404.460938 245.28125 C 401.855469 245.058594 399.242188 244.839844 396.605469 244.621094 C 396.535156 244.609375 396.464844 244.609375 396.386719 244.601563 C 396.109375 244.570313 395.84375 244.558594 395.570313 244.53125 C 454.636719 209.730469 471.503906 149.96875 471.503906 149.96875 L 471.550781 149.96875 C 501.546875 152.691406 530.320313 155.339844 555.835938 157.789063 L 555.84375 157.789063 C 557.191406 157.910156 558.535156 158.039063 559.859375 158.171875 C 574.839844 159.609375 588.625 160.96875 600.777344 162.21875 C 606.59375 162.820313 612.039063 163.390625 617.058594 163.929688 C 635.246094 165.890625 647.933594 167.460938 652.886719 168.480469 C 665.746094 171.101563 680.117188 173.558594 693.238281 175.609375 C 694.320313 175.789063 695.398438 175.949219 696.457031 176.109375 C 696.511719 176.128906 696.566406 176.128906 696.621094 176.140625 C 698.246094 176.390625 699.84375 176.640625 701.421875 176.878906 C 701.46875 176.878906 701.515625 176.890625 701.5625 176.898438 C 703.382813 177.171875 705.164063 177.441406 706.898438 177.699219 C 709.433594 178.070313 711.863281 178.421875 714.164063 178.75 C 715.160156 178.890625 716.125 179.03125 717.074219 179.160156 C 728.40625 180.761719 735.945313 181.699219 735.945313 181.699219 C 735.945313 181.699219 735.992188 181.921875 736.0625 182.320313 C 736.070313 182.351563 736.078125 182.378906 736.085938 182.410156 C 736.101563 182.519531 736.125 182.640625 736.148438 182.769531 C 736.1875 183.03125 736.242188 183.328125 736.289063 183.671875 C 736.359375 184.109375 736.441406 184.628906 736.511719 185.210938 C 736.511719 185.210938 736.511719 185.21875 736.519531 185.21875 C 736.535156 185.359375 736.558594 185.511719 736.574219 185.660156 C 736.636719 186.140625 736.699219 186.648438 736.753906 187.210938 C 736.792969 187.589844 736.832031 188 736.871094 188.398438 C 736.886719 188.628906 736.910156 188.859375 736.925781 189.089844 C 736.949219 189.351563 736.964844 189.601563 736.980469 189.859375 C 737.003906 190.230469 737.027344 190.609375 737.050781 191.011719 C 737.058594 191.160156 737.066406 191.320313 737.066406 191.480469 C 737.082031 191.75 737.089844 192.03125 737.097656 192.308594 C 737.105469 192.460938 737.105469 192.601563 737.105469 192.738281 C 737.113281 193.019531 737.121094 193.308594 737.121094 193.589844 C 737.121094 193.730469 737.121094 193.878906 737.132813 194.03125 "/>
<g clip-path="url(#clip13)" clip-rule="nonzero">
<use xlink:href="#surface15" transform="matrix(1,0,0,1,676,185)" mask="url(#mask4)"/>
</g>
<path style=" stroke:none;fill-rule:nonzero;fill:rgb(14.099121%,27.49939%,56.098938%);fill-opacity:1;" d="M 405.589844 185.300781 C 403.625 185.128906 402.179688 183.070313 402.378906 180.738281 L 402.761719 176.261719 C 402.964844 173.929688 404.734375 172.179688 406.699219 172.351563 C 408.664063 172.53125 410.109375 174.589844 409.914063 176.910156 L 409.527344 181.398438 C 409.328125 183.730469 407.554688 185.480469 405.589844 185.300781 "/>
<path style=" stroke:none;fill-rule:nonzero;fill:rgb(14.099121%,27.49939%,56.098938%);fill-opacity:1;" d="M 387.148438 183.621094 C 385.183594 183.441406 383.738281 181.390625 383.9375 179.058594 L 384.320313 174.578125 C 384.519531 172.25 386.292969 170.488281 388.257813 170.671875 C 390.226563 170.851563 391.671875 172.898438 391.472656 175.230469 L 391.089844 179.710938 C 390.886719 182.039063 389.113281 183.800781 387.148438 183.621094 "/>
<path style=" stroke:none;fill-rule:nonzero;fill:rgb(14.099121%,27.49939%,56.098938%);fill-opacity:1;" d="M 368.710938 181.941406 C 366.742188 181.761719 365.296875 179.710938 365.496094 177.378906 L 365.882813 172.898438 C 366.082031 170.570313 367.851563 168.808594 369.820313 168.988281 C 371.785156 169.171875 373.230469 171.21875 373.03125 173.550781 L 372.648438 178.03125 C 372.445313 180.359375 370.675781 182.121094 368.710938 181.941406 "/>
<path style=" stroke:none;fill-rule:nonzero;fill:rgb(14.099121%,27.49939%,56.098938%);fill-opacity:1;" d="M 350.269531 180.261719 C 348.300781 180.078125 346.855469 178.019531 347.054688 175.699219 L 347.441406 171.210938 C 347.640625 168.878906 349.410156 167.128906 351.378906 167.308594 C 353.34375 167.480469 354.789063 169.539063 354.589844 171.871094 L 354.207031 176.351563 C 354.007813 178.679688 352.234375 180.441406 350.269531 180.261719 "/>
<path style=" stroke:none;fill-rule:nonzero;fill:rgb(14.099121%,27.49939%,56.098938%);fill-opacity:1;" d="M 331.828125 178.570313 C 329.863281 178.390625 328.414063 176.339844 328.617188 174.011719 L 329 169.53125 C 329.199219 167.199219 330.972656 165.441406 332.9375 165.621094 C 334.902344 165.800781 336.347656 167.851563 336.148438 170.179688 L 335.765625 174.660156 C 335.566406 176.988281 333.792969 178.75 331.828125 178.570313 "/>
<path style=" stroke:none;fill-rule:nonzero;fill:rgb(14.099121%,27.49939%,56.098938%);fill-opacity:1;" d="M 313.386719 176.890625 C 311.421875 176.710938 309.976563 174.660156 310.175781 172.328125 L 310.558594 167.851563 C 310.757813 165.519531 312.53125 163.761719 314.496094 163.941406 C 316.464844 164.121094 317.90625 166.171875 317.710938 168.5 L 317.324219 172.980469 C 317.125 175.308594 315.351563 177.070313 313.386719 176.890625 "/>
<path style=" stroke:none;fill-rule:nonzero;fill:rgb(14.099121%,27.49939%,56.098938%);fill-opacity:1;" d="M 294.945313 175.210938 C 292.980469 175.03125 291.535156 172.980469 291.734375 170.648438 L 292.117188 166.160156 C 292.316406 163.839844 294.089844 162.078125 296.054688 162.261719 C 298.023438 162.441406 299.46875 164.488281 299.269531 166.820313 L 298.882813 171.300781 C 298.683594 173.628906 296.910156 175.390625 294.945313 175.210938 "/>
<path style=" stroke:none;fill-rule:nonzero;fill:rgb(14.099121%,27.49939%,56.098938%);fill-opacity:1;" d="M 276.503906 173.519531 C 274.539063 173.339844 273.09375 171.289063 273.292969 168.960938 L 273.675781 164.480469 C 273.878906 162.148438 275.648438 160.390625 277.613281 160.570313 C 279.582031 160.75 281.027344 162.808594 280.828125 165.128906 L 280.441406 169.621094 C 280.242188 171.941406 278.472656 173.699219 276.503906 173.519531 "/>
<path style=" stroke:none;fill-rule:nonzero;fill:rgb(14.099121%,27.49939%,56.098938%);fill-opacity:1;" d="M 258.0625 171.839844 C 256.097656 171.660156 254.652344 169.609375 254.851563 167.28125 L 255.234375 162.800781 C 255.4375 160.46875 257.210938 158.710938 259.175781 158.890625 C 261.140625 159.070313 262.585938 161.121094 262.386719 163.449219 L 262.003906 167.929688 C 261.800781 170.261719 260.03125 172.019531 258.0625 171.839844 "/>
<path style=" stroke:none;fill-rule:nonzero;fill:rgb(14.099121%,27.49939%,56.098938%);fill-opacity:1;" d="M 239.992188 170.191406 C 238.027344 170.011719 236.578125 167.960938 236.78125 165.628906 L 237.164063 161.148438 C 237.363281 158.820313 239.136719 157.058594 241.101563 157.238281 C 243.066406 157.421875 244.511719 159.46875 244.3125 161.800781 L 243.929688 166.28125 C 243.730469 168.609375 241.957031 170.371094 239.992188 170.191406 "/>
<path style=" stroke:none;fill-rule:nonzero;fill:rgb(14.099121%,27.49939%,56.098938%);fill-opacity:1;" d="M 221.550781 168.511719 C 219.585938 168.328125 218.140625 166.28125 218.339844 163.949219 L 218.722656 159.46875 C 218.921875 157.140625 220.695313 155.378906 222.660156 155.558594 C 224.628906 155.738281 226.070313 157.789063 225.871094 160.121094 L 225.488281 164.601563 C 225.289063 166.929688 223.515625 168.691406 221.550781 168.511719 "/>
<path style=" stroke:none;fill-rule:nonzero;fill:rgb(14.099121%,27.49939%,56.098938%);fill-opacity:1;" d="M 203.109375 166.828125 C 201.144531 166.648438 199.699219 164.589844 199.898438 162.269531 L 200.28125 157.78125 C 200.480469 155.449219 202.253906 153.699219 204.21875 153.878906 C 206.1875 154.050781 207.632813 156.109375 207.433594 158.441406 L 207.046875 162.921875 C 206.847656 165.25 205.078125 167 203.109375 166.828125 "/>
<path style=" stroke:none;fill-rule:nonzero;fill:rgb(14.099121%,27.49939%,56.098938%);fill-opacity:1;" d="M 180.265625 164.511719 C 178.300781 164.328125 176.855469 162.28125 177.054688 159.949219 L 177.4375 155.46875 C 177.636719 153.140625 179.410156 151.378906 181.375 151.558594 C 183.339844 151.738281 184.785156 153.800781 184.589844 156.121094 L 184.203125 160.609375 C 184.003906 162.929688 182.230469 164.691406 180.265625 164.511719 "/>
<path style=" stroke:none;fill-rule:nonzero;fill:rgb(14.099121%,27.49939%,56.098938%);fill-opacity:1;" d="M 606.792969 205.941406 C 604.828125 205.761719 603.382813 203.710938 603.582031 201.378906 L 603.96875 196.898438 C 604.164063 194.570313 605.9375 192.808594 607.902344 192.988281 C 609.871094 193.171875 611.316406 195.21875 611.117188 197.550781 L 610.730469 202.03125 C 610.53125 204.359375 608.761719 206.121094 606.792969 205.941406 "/>
<path style=" stroke:none;fill-rule:nonzero;fill:rgb(14.099121%,27.49939%,56.098938%);fill-opacity:1;" d="M 588.355469 204.261719 C 586.386719 204.078125 584.941406 202.019531 585.140625 199.699219 L 585.523438 195.210938 C 585.726563 192.878906 587.496094 191.128906 589.464844 191.308594 C 591.429688 191.480469 592.875 193.539063 592.675781 195.871094 L 592.289063 200.351563 C 592.089844 202.679688 590.320313 204.441406 588.355469 204.261719 "/>
<path style=" stroke:none;fill-rule:nonzero;fill:rgb(14.099121%,27.49939%,56.098938%);fill-opacity:1;" d="M 569.914063 202.570313 C 567.945313 202.390625 566.5 200.339844 566.699219 198.011719 L 567.085938 193.53125 C 567.285156 191.199219 569.054688 189.441406 571.023438 189.621094 C 572.988281 189.800781 574.433594 191.851563 574.234375 194.179688 L 573.851563 198.660156 C 573.648438 200.988281 571.878906 202.75 569.914063 202.570313 "/>
<path style=" stroke:none;fill-rule:nonzero;fill:rgb(14.099121%,27.49939%,56.098938%);fill-opacity:1;" d="M 111.238281 139.398438 L 98.667969 151.929688 L 91.164063 152.449219 C 91.820313 152.011719 92.394531 151.570313 92.875 151.101563 C 92.960938 151.019531 93.039063 150.949219 93.128906 150.859375 C 94.5 149.53125 96.765625 147.328125 100.023438 144.738281 C 102.199219 143.019531 104.816406 141.128906 107.914063 139.199219 C 107.933594 139.191406 107.945313 139.191406 107.960938 139.171875 "/>
<path style=" stroke:none;fill-rule:nonzero;fill:rgb(14.099121%,27.49939%,56.098938%);fill-opacity:1;" d="M 113.980469 139.851563 L 101.703125 152.511719 L 115.644531 155.628906 L 120.042969 141.191406 Z M 113.980469 139.851563 "/>
<path style=" stroke:none;fill-rule:nonzero;fill:rgb(14.099121%,27.49939%,56.098938%);fill-opacity:1;" d="M 121.355469 141.640625 L 118.117188 155.210938 L 128.445313 152.101563 L 129.109375 142.648438 Z M 121.355469 141.640625 "/>
<path style=" stroke:none;fill-rule:nonzero;fill:rgb(14.099121%,27.49939%,56.098938%);fill-opacity:1;" d="M 372.84375 245.640625 C 378.261719 243.398438 379.679688 233.441406 375.199219 229.160156 C 370.71875 224.890625 364.585938 220.601563 357.691406 220.070313 C 343.511719 218.988281 349.265625 249.5 353.972656 250.128906 C 356.738281 250.5 365.636719 248.621094 372.84375 245.640625 "/>
<path style=" stroke:none;fill-rule:nonzero;fill:rgb(17.298889%,36.099243%,70.599365%);fill-opacity:1;" d="M 675.160156 186.710938 C 675.726563 185.898438 728.507813 167.511719 763 175.511719 L 729.78125 197.621094 L 676.371094 192.769531 C 676.371094 192.769531 672.3125 190.78125 675.160156 186.710938 "/>
<path style=" stroke:none;fill-rule:nonzero;fill:rgb(82.699585%,87.799072%,100%);fill-opacity:1;" d="M 649.675781 58 C 649.675781 58 614.351563 140.511719 607.625 153.03125 C 600.898438 165.558594 586.199219 173.550781 586.199219 173.550781 L 586.113281 173.589844 L 492.507813 213.769531 C 492.507813 213.769531 375.753906 204.039063 350.347656 201.078125 L 350.34375 201.078125 C 348.039063 200.808594 346.484375 200.589844 345.84375 200.449219 C 338.121094 198.710938 334.507813 194.929688 335.992188 191.949219 C 337.476563 188.96875 516.980469 166.230469 536.855469 163.890625 C 537.042969 163.859375 537.230469 163.839844 537.421875 163.820313 C 556.765625 161.410156 558.5625 154.449219 558.5625 154.449219 L 632.621094 64.75 C 633.570313 63.089844 635.121094 61.839844 636.914063 60.898438 C 642.238281 58.101563 649.675781 58 649.675781 58 "/>
<path style=" stroke:none;fill-rule:nonzero;fill:rgb(41.999817%,59.199524%,96.499634%);fill-opacity:1;" d="M 636.914063 60.898438 C 616.984375 86.460938 561.859375 156.960938 556.625 161.761719 C 550.996094 166.929688 389.921875 194.289063 350.347656 201.078125 L 350.34375 201.078125 C 348.039063 200.808594 346.484375 200.589844 345.839844 200.449219 C 338.121094 198.710938 334.507813 194.929688 335.992188 191.949219 C 337.476563 188.96875 516.980469 166.230469 536.851563 163.878906 C 556.726563 161.539063 558.5625 154.449219 558.5625 154.449219 L 632.621094 64.75 C 633.570313 63.089844 635.121094 61.839844 636.914063 60.898438 "/>
<path style=" stroke:none;fill-rule:nonzero;fill:rgb(82.699585%,87.799072%,100%);fill-opacity:1;" d="M 649.675781 58 C 649.675781 58 614.351563 140.511719 607.625 153.03125 C 600.898438 165.558594 586.199219 173.550781 586.199219 173.550781 L 586.113281 173.589844 C 565.777344 173.070313 548.640625 168.109375 537.421875 163.820313 C 556.765625 161.410156 558.5625 154.449219 558.5625 154.449219 L 632.621094 64.75 C 633.570313 63.089844 635.121094 61.839844 636.914063 60.898438 C 642.238281 58.101563 649.675781 58 649.675781 58 "/>
<path style=" stroke:none;fill-rule:nonzero;fill:rgb(90.59906%,93.299866%,100%);fill-opacity:1;" d="M 360.898438 212.871094 L 357.347656 254.488281 C 357.347656 254.488281 342.296875 260.210938 318.765625 258.878906 C 304.363281 258.070313 294.765625 254.730469 289.488281 252.269531 C 286.144531 250.699219 284.535156 249.488281 284.535156 249.488281 L 288.261719 205.859375 C 289.589844 204.671875 291.4375 203.800781 293.679688 203.199219 C 312.28125 198.160156 358.015625 211.191406 358.015625 211.191406 "/>
<path style=" stroke:none;fill-rule:nonzero;fill:rgb(100%,57.299805%,13.299561%);fill-opacity:1;" d="M 293.679688 203.199219 L 289.488281 252.269531 C 286.144531 250.699219 284.535156 249.488281 284.535156 249.488281 L 288.261719 205.859375 C 289.589844 204.671875 291.433594 203.800781 293.679688 203.199219 "/>
</g>
</svg>
